<svg width="28" height="25" viewBox="0 0 28 25" fill="none" xmlns="http://www.w3.org/2000/svg">
<path d="M17.2333 2L18.0993 1.5L17.2333 0L16.3672 1.5L17.2333 2ZM25.7705 16.787V17.787H27.5026L26.6365 16.287L25.7705 16.787ZM8.696 16.787L7.82998 16.287L6.96395 17.787H8.696V16.787ZM16.3672 2.5L24.9045 17.287L26.6365 16.287L18.0993 1.5L16.3672 2.5ZM13.3239 10.7712L18.0993 2.5L16.3672 1.5L11.5918 9.77125L13.3239 10.7712ZM8.62297 10.2002C9.83874 10.2002 10.9724 10.5386 11.9384 11.1258L12.9773 9.41673C11.707 8.64462 10.2154 8.2002 8.62297 8.2002V10.2002ZM2.22949 16.5937C2.22949 13.0627 5.09195 10.2002 8.62297 10.2002V8.2002C3.98738 8.2002 0.229492 11.9581 0.229492 16.5937H2.22949ZM8.62297 22.9872C5.09195 22.9872 2.22949 20.1247 2.22949 16.5937H0.229492C0.229492 21.2293 3.98738 24.9872 8.62297 24.9872V22.9872ZM15.0143 16.7613C14.9257 20.2146 12.098 22.9872 8.62297 22.9872V24.9872C13.1853 24.9872 16.8973 21.3473 17.0136 16.8126L15.0143 16.7613ZM25.7705 15.787H16.014V17.787H25.7705V15.787ZM16.014 15.787H8.696V17.787H16.014V15.787ZM9.56203 17.287L13.3239 10.7712L11.5918 9.77125L7.82998 16.287L9.56203 17.287ZM11.9384 11.1258C13.786 12.2488 15.0164 14.278 15.0164 16.5937H17.0164C17.0164 13.5509 15.3967 10.8874 12.9773 9.41673L11.9384 11.1258ZM15.0164 16.5937C15.0164 16.6498 15.0157 16.7056 15.0143 16.7613L17.0136 16.8126C17.0155 16.7398 17.0164 16.6669 17.0164 16.5937H15.0164Z" fill="#52525B"/>
</svg>
