<svg width="53" height="51" viewBox="0 0 53 51" fill="none" xmlns="http://www.w3.org/2000/svg">
<path d="M22.0844 34C21.6044 34 21.3644 33.6 21.3644 32.8V32.392C21.3644 31.592 21.6044 31.192 22.0844 31.192H25.2764V20.416L22.0124 20.896C21.8044 20.896 21.6444 20.776 21.5324 20.536C21.4204 20.296 21.3404 20.016 21.2924 19.696C21.2604 19.376 21.2444 19.104 21.2444 18.88C21.2444 18.512 21.4524 18.288 21.8684 18.208L27.8444 17.104C28.0364 17.104 28.2444 17.168 28.4684 17.296C28.7084 17.408 28.8284 17.536 28.8284 17.68V31.192H31.1564C31.6364 31.192 31.8764 31.592 31.8764 32.392V32.8C31.8764 33.6 31.6364 34 31.1564 34H22.0844Z" fill="#A1A1AA"/>
<rect x="1.49023" y="1" width="50" height="49" rx="24.5" stroke="#52525B" stroke-width="2"/>
</svg>
