<svg width="53" height="51" viewBox="0 0 53 51" fill="none" xmlns="http://www.w3.org/2000/svg">
<rect x="1.50977" y="1" width="50" height="49" rx="24.5" fill="white"/>
<path d="M31.3835 32V28.832H26.5355L30.1595 24.728C31.1195 23.648 31.8155 22.28 31.8155 20.744C31.8155 17.936 29.4635 15.968 26.6795 15.968C23.6795 15.968 21.6635 17.84 21.1835 20.84L24.2555 21.368C24.4475 20.12 25.2635 19.184 26.4875 19.184C27.7355 19.184 28.4555 19.904 28.4555 20.744C28.4555 21.344 28.0955 21.968 27.6155 22.52L21.1595 30.176V32H31.3835Z" fill="#A1A1AA"/>
<rect x="1.50977" y="1" width="50" height="49" rx="24.5" stroke="#A1A1AA" stroke-width="2"/>
</svg>
