<svg width="158" height="158" viewBox="0 0 158 158" fill="none" xmlns="http://www.w3.org/2000/svg">
<path d="M39.5 65.2297C39.5 64.8881 39.6744 64.5701 39.9624 64.3864L77.9249 40.1854C78.5807 39.7673 79.4193 39.7673 80.0751 40.1854L118.038 64.3864C118.326 64.5701 118.5 64.8881 118.5 65.2297V120.438C118.5 122.094 117.157 123.438 115.5 123.438H42.5C40.8431 123.438 39.5 122.094 39.5 120.438V65.2297Z" fill="url(#paint0_linear_1558_14481)"/>
<g filter="url(#filter0_bi_1558_14481)">
<path d="M77.971 59.8674L31.8967 87.512C30.897 88.1118 29.625 87.3917 29.625 86.2257V60.3824C29.625 59.6799 29.9936 59.0288 30.596 58.6674L77.971 30.2424C78.6044 29.8624 79.3956 29.8624 80.029 30.2424L127.404 58.6674C128.006 59.0288 128.375 59.6799 128.375 60.3824V86.2257C128.375 87.3917 127.103 88.1118 126.103 87.512L80.029 59.8674C79.3956 59.4874 78.6044 59.4874 77.971 59.8674Z" fill="#70EFDE" fill-opacity="0.4"/>
</g>
<g filter="url(#filter1_bi_1558_14481)">
<path d="M79 97.8125C79 95.6034 80.7909 93.8125 83 93.8125H104.625C106.834 93.8125 108.625 95.6034 108.625 97.8125V127.375C108.625 127.927 108.177 128.375 107.625 128.375H80C79.4477 128.375 79 127.927 79 127.375V97.8125Z" fill="#70EFDE" fill-opacity="0.4"/>
</g>
<rect x="54.3125" y="79" width="14.8125" height="14.8125" rx="1" fill="white"/>
<defs>
<filter id="filter0_bi_1558_14481" x="25.625" y="25.9575" width="106.75" height="65.7705" filterUnits="userSpaceOnUse" color-interpolation-filters="sRGB">
<feFlood flood-opacity="0" result="BackgroundImageFix"/>
<feGaussianBlur in="BackgroundImage" stdDeviation="2"/>
<feComposite in2="SourceAlpha" operator="in" result="effect1_backgroundBlur_1558_14481"/>
<feBlend mode="normal" in="SourceGraphic" in2="effect1_backgroundBlur_1558_14481" result="shape"/>
<feColorMatrix in="SourceAlpha" type="matrix" values="0 0 0 0 0 0 0 0 0 0 0 0 0 0 0 0 0 0 127 0" result="hardAlpha"/>
<feOffset dy="0.2"/>
<feGaussianBlur stdDeviation="1"/>
<feComposite in2="hardAlpha" operator="arithmetic" k2="-1" k3="1"/>
<feColorMatrix type="matrix" values="0 0 0 0 1 0 0 0 0 1 0 0 0 0 1 0 0 0 0.8 0"/>
<feBlend mode="normal" in2="shape" result="effect2_innerShadow_1558_14481"/>
</filter>
<filter id="filter1_bi_1558_14481" x="75" y="89.8125" width="37.625" height="42.5625" filterUnits="userSpaceOnUse" color-interpolation-filters="sRGB">
<feFlood flood-opacity="0" result="BackgroundImageFix"/>
<feGaussianBlur in="BackgroundImage" stdDeviation="2"/>
<feComposite in2="SourceAlpha" operator="in" result="effect1_backgroundBlur_1558_14481"/>
<feBlend mode="normal" in="SourceGraphic" in2="effect1_backgroundBlur_1558_14481" result="shape"/>
<feColorMatrix in="SourceAlpha" type="matrix" values="0 0 0 0 0 0 0 0 0 0 0 0 0 0 0 0 0 0 127 0" result="hardAlpha"/>
<feOffset dy="0.2"/>
<feGaussianBlur stdDeviation="1"/>
<feComposite in2="hardAlpha" operator="arithmetic" k2="-1" k3="1"/>
<feColorMatrix type="matrix" values="0 0 0 0 1 0 0 0 0 1 0 0 0 0 1 0 0 0 0.8 0"/>
<feBlend mode="normal" in2="shape" result="effect2_innerShadow_1558_14481"/>
</filter>
<linearGradient id="paint0_linear_1558_14481" x1="39.5" y1="39.5" x2="123.283" y2="118.355" gradientUnits="userSpaceOnUse">
<stop stop-color="#00C4B4"/>
<stop offset="1" stop-color="#70EFDE"/>
</linearGradient>
</defs>
</svg>
