<svg width="25" height="24" viewBox="0 0 25 24" fill="none" xmlns="http://www.w3.org/2000/svg">
<path fill-rule="evenodd" clip-rule="evenodd" d="M9.42955 4.46984C8.15833 4.32776 6.84242 4.32776 5.5712 4.46984C5.26231 4.50436 5.01872 4.74895 4.98397 5.04601C4.83217 6.34395 4.83217 7.65516 4.98397 8.9531C5.01872 9.25016 5.26231 9.49475 5.5712 9.52927C6.84242 9.67135 8.15833 9.67135 9.42955 9.52927C9.73844 9.49475 9.98203 9.25016 10.0168 8.9531C10.1686 7.65516 10.1686 6.34395 10.0168 5.04601C9.98203 4.74895 9.73844 4.50436 9.42955 4.46984ZM5.40459 2.97912C6.78654 2.82467 8.21421 2.82467 9.59616 2.97912C10.587 3.08986 11.3894 3.86985 11.5066 4.87176C11.672 6.28547 11.672 7.71364 11.5066 9.12735C11.3894 10.1293 10.587 10.9093 9.59616 11.02C8.21421 11.1744 6.78654 11.1744 5.40459 11.02C4.41375 10.9093 3.61131 10.1293 3.49413 9.12735C3.32878 7.71364 3.32878 6.28547 3.49413 4.87176C3.61131 3.86985 4.41375 3.08986 5.40459 2.97912Z" fill="white"/>
<path fill-rule="evenodd" clip-rule="evenodd" d="M9.42955 14.4698C8.15833 14.3278 6.84242 14.3278 5.5712 14.4698C5.26231 14.5044 5.01872 14.749 4.98397 15.046C4.83217 16.344 4.83217 17.6552 4.98397 18.9531C5.01872 19.2502 5.26231 19.4948 5.5712 19.5293C6.84242 19.6714 8.15833 19.6714 9.42955 19.5293C9.73844 19.4948 9.98203 19.2502 10.0168 18.9531C10.1686 17.6552 10.1686 16.344 10.0168 15.046C9.98203 14.749 9.73844 14.5044 9.42955 14.4698ZM5.40459 12.9791C6.78654 12.8247 8.21421 12.8247 9.59616 12.9791C10.587 13.0899 11.3894 13.8698 11.5066 14.8718C11.672 16.2855 11.672 17.7136 11.5066 19.1274C11.3894 20.1293 10.587 20.9093 9.59616 21.02C8.21421 21.1744 6.78654 21.1744 5.40459 21.02C4.41375 20.9093 3.61131 20.1293 3.49413 19.1274C3.32878 17.7136 3.32878 16.2855 3.49413 14.8718C3.61131 13.8699 4.41375 13.0899 5.40459 12.9791Z" fill="white"/>
<path fill-rule="evenodd" clip-rule="evenodd" d="M19.4295 4.46984C18.1583 4.32776 16.8424 4.32776 15.5712 4.46984C15.2623 4.50436 15.0187 4.74895 14.984 5.04601C14.8322 6.34395 14.8322 7.65516 14.984 8.9531C15.0187 9.25016 15.2623 9.49475 15.5712 9.52927C16.8424 9.67135 18.1583 9.67135 19.4295 9.52927C19.7384 9.49475 19.982 9.25016 20.0168 8.9531C20.1686 7.65516 20.1686 6.34395 20.0168 5.04601C19.982 4.74895 19.7384 4.50436 19.4295 4.46984ZM15.4046 2.97912C16.7865 2.82467 18.2142 2.82467 19.5962 2.97912C20.587 3.08986 21.3894 3.86985 21.5066 4.87176C21.672 6.28547 21.672 7.71364 21.5066 9.12735C21.3894 10.1293 20.587 10.9093 19.5962 11.02C18.2142 11.1744 16.7865 11.1744 15.4046 11.02C14.4138 10.9093 13.6113 10.1293 13.4941 9.12735C13.3288 7.71364 13.3288 6.28547 13.4941 4.87176C13.6113 3.86985 14.4138 3.08986 15.4046 2.97912Z" fill="white"/>
<path fill-rule="evenodd" clip-rule="evenodd" d="M19.4295 14.4698C18.1583 14.3278 16.8424 14.3278 15.5712 14.4698C15.2623 14.5044 15.0187 14.749 14.984 15.046C14.8322 16.344 14.8322 17.6552 14.984 18.9531C15.0187 19.2502 15.2623 19.4948 15.5712 19.5293C16.8424 19.6714 18.1583 19.6714 19.4295 19.5293C19.7384 19.4948 19.982 19.2502 20.0168 18.9531C20.1686 17.6552 20.1686 16.344 20.0168 15.046C19.982 14.749 19.7384 14.5044 19.4295 14.4698ZM15.4046 12.9791C16.7865 12.8247 18.2142 12.8247 19.5962 12.9791C20.587 13.0899 21.3894 13.8698 21.5066 14.8718C21.672 16.2855 21.672 17.7136 21.5066 19.1274C21.3894 20.1293 20.587 20.9093 19.5962 21.02C18.2142 21.1744 16.7865 21.1744 15.4046 21.02C14.4138 20.9093 13.6113 20.1293 13.4941 19.1274C13.3288 17.7136 13.3288 16.2855 13.4941 14.8718C13.6113 13.8699 14.4138 13.0899 15.4046 12.9791Z" fill="white"/>
</svg>
