<svg width="19" height="20" viewBox="0 0 19 20" fill="none" xmlns="http://www.w3.org/2000/svg">
<path fill-rule="evenodd" clip-rule="evenodd" d="M6.42955 2.46984C5.15833 2.32776 3.84242 2.32776 2.5712 2.46984C2.26231 2.50436 2.01872 2.74895 1.98397 3.04601C1.83217 4.34395 1.83217 5.65516 1.98397 6.9531C2.01872 7.25016 2.26231 7.49475 2.5712 7.52927C3.84242 7.67135 5.15833 7.67135 6.42955 7.52927C6.73844 7.49475 6.98203 7.25016 7.01678 6.9531C7.16858 5.65516 7.16858 4.34395 7.01678 3.04601C6.98203 2.74895 6.73844 2.50436 6.42955 2.46984ZM2.40459 0.979121C3.78654 0.824668 5.21421 0.824668 6.59616 0.979121C7.587 1.08986 8.38944 1.86985 8.50662 2.87176C8.67197 4.28547 8.67197 5.71364 8.50662 7.12735C8.38944 8.12926 7.587 8.90925 6.59616 9.01999C5.21421 9.17444 3.78654 9.17444 2.40459 9.01999C1.41375 8.90925 0.61131 8.12926 0.494127 7.12735C0.328781 5.71364 0.328781 4.28547 0.494127 2.87176C0.61131 1.86985 1.41375 1.08986 2.40459 0.979121Z" fill="black"/>
<path fill-rule="evenodd" clip-rule="evenodd" d="M6.42955 12.4698C5.15833 12.3278 3.84242 12.3278 2.5712 12.4698C2.26231 12.5044 2.01872 12.749 1.98397 13.046C1.83217 14.344 1.83217 15.6552 1.98397 16.9531C2.01872 17.2502 2.26231 17.4948 2.5712 17.5293C3.84242 17.6714 5.15833 17.6714 6.42955 17.5293C6.73844 17.4948 6.98203 17.2502 7.01678 16.9531C7.16858 15.6552 7.16858 14.344 7.01678 13.046C6.98203 12.749 6.73844 12.5044 6.42955 12.4698ZM2.40459 10.9791C3.78654 10.8247 5.21421 10.8247 6.59616 10.9791C7.587 11.0899 8.38944 11.8698 8.50662 12.8718C8.67197 14.2855 8.67197 15.7136 8.50662 17.1274C8.38944 18.1293 7.587 18.9093 6.59616 19.02C5.21421 19.1744 3.78654 19.1744 2.40459 19.02C1.41375 18.9093 0.61131 18.1293 0.494127 17.1274C0.328781 15.7136 0.328781 14.2855 0.494127 12.8718C0.61131 11.8698 1.41375 11.0899 2.40459 10.9791Z" fill="black"/>
<path fill-rule="evenodd" clip-rule="evenodd" d="M16.4295 2.46984C15.1583 2.32776 13.8424 2.32776 12.5712 2.46984C12.2623 2.50436 12.0187 2.74895 11.984 3.04601C11.8322 4.34395 11.8322 5.65516 11.984 6.9531C12.0187 7.25016 12.2623 7.49475 12.5712 7.52927C13.8424 7.67135 15.1583 7.67135 16.4295 7.52927C16.7384 7.49475 16.982 7.25016 17.0168 6.9531C17.1686 5.65516 17.1686 4.34395 17.0168 3.04601C16.982 2.74895 16.7384 2.50436 16.4295 2.46984ZM12.4046 0.979121C13.7865 0.824668 15.2142 0.824668 16.5962 0.979121C17.587 1.08986 18.3894 1.86985 18.5066 2.87176C18.672 4.28547 18.672 5.71364 18.5066 7.12735C18.3894 8.12926 17.587 8.90925 16.5962 9.01999C15.2142 9.17444 13.7865 9.17444 12.4046 9.01999C11.4138 8.90925 10.6113 8.12926 10.4941 7.12735C10.3288 5.71364 10.3288 4.28547 10.4941 2.87176C10.6113 1.86985 11.4138 1.08986 12.4046 0.979121Z" fill="black"/>
<path fill-rule="evenodd" clip-rule="evenodd" d="M16.4295 12.4698C15.1583 12.3278 13.8424 12.3278 12.5712 12.4698C12.2623 12.5044 12.0187 12.749 11.984 13.046C11.8322 14.344 11.8322 15.6552 11.984 16.9531C12.0187 17.2502 12.2623 17.4948 12.5712 17.5293C13.8424 17.6714 15.1583 17.6714 16.4295 17.5293C16.7384 17.4948 16.982 17.2502 17.0168 16.9531C17.1686 15.6552 17.1686 14.344 17.0168 13.046C16.982 12.749 16.7384 12.5044 16.4295 12.4698ZM12.4046 10.9791C13.7865 10.8247 15.2142 10.8247 16.5962 10.9791C17.587 11.0899 18.3894 11.8698 18.5066 12.8718C18.672 14.2855 18.672 15.7136 18.5066 17.1274C18.3894 18.1293 17.587 18.9093 16.5962 19.02C15.2142 19.1744 13.7865 19.1744 12.4046 19.02C11.4138 18.9093 10.6113 18.1293 10.4941 17.1274C10.3288 15.7136 10.3288 14.2855 10.4941 12.8718C10.6113 11.8698 11.4138 11.0899 12.4046 10.9791Z" fill="black"/>
</svg>
