<svg width="15" height="16" viewBox="0 0 15 16" fill="none" xmlns="http://www.w3.org/2000/svg">
<path d="M5.41792 2.86208C5.27542 3.36875 5.20417 3.89917 5.20417 4.4375C5.20417 7.6675 7.8325 10.2958 11.0625 10.2958C11.6008 10.2958 12.1313 10.2246 12.6379 10.0821C11.8146 12.1088 9.81958 13.5417 7.5 13.5417C4.44417 13.5417 1.95833 11.0558 1.95833 8C1.95833 5.68042 3.39125 3.68542 5.41792 2.86208ZM7.5 0.875C3.56542 0.875 0.375 4.06542 0.375 8C0.375 11.9346 3.56542 15.125 7.5 15.125C11.4346 15.125 14.625 11.9346 14.625 8C14.625 7.63583 14.5933 7.27167 14.5458 6.92333C13.77 8.00792 12.5033 8.7125 11.0625 8.7125C8.70333 8.7125 6.7875 6.79667 6.7875 4.4375C6.7875 3.00458 7.49208 1.73 8.57667 0.954167C8.22833 0.906667 7.86417 0.875 7.5 0.875Z" fill="#3F3F46"/>
</svg>
