<svg width="20" height="20" viewBox="0 0 20 20" fill="none" xmlns="http://www.w3.org/2000/svg">
<path d="M9.99967 7.49998C11.3747 7.49998 12.4997 8.62498 12.4997 9.99998C12.4997 11.375 11.3747 12.5 9.99967 12.5C8.62467 12.5 7.49967 11.375 7.49967 9.99998C7.49967 8.62498 8.62467 7.49998 9.99967 7.49998ZM9.99967 5.83331C7.69967 5.83331 5.83301 7.69998 5.83301 9.99998C5.83301 12.3 7.69967 14.1666 9.99967 14.1666C12.2997 14.1666 14.1663 12.3 14.1663 9.99998C14.1663 7.69998 12.2997 5.83331 9.99967 5.83331ZM1.66634 10.8333H3.33301C3.79134 10.8333 4.16634 10.4583 4.16634 9.99998C4.16634 9.54165 3.79134 9.16665 3.33301 9.16665H1.66634C1.20801 9.16665 0.833008 9.54165 0.833008 9.99998C0.833008 10.4583 1.20801 10.8333 1.66634 10.8333ZM16.6663 10.8333H18.333C18.7913 10.8333 19.1663 10.4583 19.1663 9.99998C19.1663 9.54165 18.7913 9.16665 18.333 9.16665H16.6663C16.208 9.16665 15.833 9.54165 15.833 9.99998C15.833 10.4583 16.208 10.8333 16.6663 10.8333ZM9.16634 1.66665V3.33331C9.16634 3.79165 9.54134 4.16665 9.99967 4.16665C10.458 4.16665 10.833 3.79165 10.833 3.33331V1.66665C10.833 1.20831 10.458 0.833313 9.99967 0.833313C9.54134 0.833313 9.16634 1.20831 9.16634 1.66665ZM9.16634 16.6666V18.3333C9.16634 18.7916 9.54134 19.1666 9.99967 19.1666C10.458 19.1666 10.833 18.7916 10.833 18.3333V16.6666C10.833 16.2083 10.458 15.8333 9.99967 15.8333C9.54134 15.8333 9.16634 16.2083 9.16634 16.6666ZM4.99134 3.81665C4.66634 3.49165 4.13301 3.49165 3.81634 3.81665C3.49134 4.14165 3.49134 4.67498 3.81634 4.99165L4.69967 5.87498C5.02467 6.19998 5.55801 6.19998 5.87467 5.87498C6.19134 5.54998 6.19967 5.01665 5.87467 4.69998L4.99134 3.81665ZM15.2997 14.125C14.9747 13.8 14.4413 13.8 14.1247 14.125C13.7997 14.45 13.7997 14.9833 14.1247 15.3L15.008 16.1833C15.333 16.5083 15.8663 16.5083 16.183 16.1833C16.508 15.8583 16.508 15.325 16.183 15.0083L15.2997 14.125ZM16.183 4.99165C16.508 4.66665 16.508 4.13331 16.183 3.81665C15.858 3.49165 15.3247 3.49165 15.008 3.81665L14.1247 4.69998C13.7997 5.02498 13.7997 5.55831 14.1247 5.87498C14.4497 6.19165 14.983 6.19998 15.2997 5.87498L16.183 4.99165ZM5.87467 15.3C6.19967 14.975 6.19967 14.4416 5.87467 14.125C5.54967 13.8 5.01634 13.8 4.69967 14.125L3.81634 15.0083C3.49134 15.3333 3.49134 15.8666 3.81634 16.1833C4.14134 16.5 4.67467 16.5083 4.99134 16.1833L5.87467 15.3Z" fill="#1F1F1F"/>
</svg>
