<svg width="42" height="42" viewBox="0 0 42 42" fill="none" xmlns="http://www.w3.org/2000/svg">
<circle cx="21" cy="21" r="19.8" fill="url(#paint0_radial_2196_18069)" stroke="#18181B" stroke-width="1.4"/>
<path d="M18.9179 15.8621C18.7754 16.3688 18.7042 16.8992 18.7042 17.4375C18.7042 20.6675 21.3325 23.2958 24.5625 23.2958C25.1008 23.2958 25.6313 23.2246 26.1379 23.0821C25.3146 25.1088 23.3196 26.5417 21 26.5417C17.9442 26.5417 15.4583 24.0558 15.4583 21C15.4583 18.6804 16.8913 16.6854 18.9179 15.8621ZM21 13.875C17.0654 13.875 13.875 17.0654 13.875 21C13.875 24.9346 17.0654 28.125 21 28.125C24.9346 28.125 28.125 24.9346 28.125 21C28.125 20.6358 28.0933 20.2717 28.0458 19.9233C27.27 21.0079 26.0033 21.7125 24.5625 21.7125C22.2033 21.7125 20.2875 19.7967 20.2875 17.4375C20.2875 16.0046 20.9921 14.73 22.0767 13.9542C21.7283 13.9067 21.3642 13.875 21 13.875Z" fill="#3F3F46"/>
<defs>
<radialGradient id="paint0_radial_2196_18069" cx="0" cy="0" r="1" gradientUnits="userSpaceOnUse" gradientTransform="translate(31.3168 31.8776) rotate(-114.675) scale(44.5061 35.8127)">
<stop stop-color="#EBEDFF"/>
<stop offset="0.786458" stop-color="#FFF2E3"/>
<stop offset="1" stop-color="#FEFDF8"/>
</radialGradient>
</defs>
</svg>
