<svg width="22" height="22" viewBox="0 0 22 22" fill="none" xmlns="http://www.w3.org/2000/svg">
<path fill-rule="evenodd" clip-rule="evenodd" d="M11.0305 1.60973L8.81773 3.89923C8.58221 4.14292 8.25783 4.28053 7.91892 4.28053H4.78053V7.41892C4.78053 7.75783 4.64292 8.08221 4.39923 8.31773L2.10973 10.5305L4.39923 12.7433C4.64292 12.9789 4.78053 13.3032 4.78053 13.6421V16.7805H7.91892C8.25783 16.7805 8.58221 16.9181 8.81773 17.1618L11.0305 19.4513L13.2433 17.1618C13.4789 16.9181 13.8032 16.7805 14.1421 16.7805H17.2805V13.6421C17.2805 13.3032 17.4181 12.9789 17.6618 12.7433L19.9513 10.5305L17.6618 8.31774C17.4181 8.08221 17.2805 7.75783 17.2805 7.41893V4.28053H14.1421C13.8032 4.28053 13.4789 4.14292 13.2433 3.89923L11.0305 1.60973ZM10.1317 0.381301C10.6231 -0.127101 11.438 -0.1271 11.9293 0.381301L14.2482 2.78053H17.5305C18.2209 2.78053 18.7805 3.34018 18.7805 4.03053V7.31287L21.1798 9.63172C21.6882 10.1231 21.6882 10.938 21.1798 11.4293L18.7805 13.7482V17.0305C18.7805 17.7209 18.2209 18.2805 17.5305 18.2805H14.2482L11.9293 20.6798C11.438 21.1882 10.6231 21.1882 10.1317 20.6798L7.81286 18.2805H4.53053C3.84018 18.2805 3.28053 17.7209 3.28053 17.0305V13.7482L0.8813 11.4293C0.3729 10.938 0.372899 10.1231 0.8813 9.63172L3.28053 7.31287V4.03053C3.28053 3.34018 3.84018 2.78053 4.53053 2.78053H7.81287L10.1317 0.381301Z" fill="white"/>
<path fill-rule="evenodd" clip-rule="evenodd" d="M6.28053 10.5305C6.28053 7.90718 8.40718 5.78053 11.0305 5.78053C13.6539 5.78053 15.7805 7.90718 15.7805 10.5305C15.7805 13.1539 13.6539 15.2805 11.0305 15.2805C8.40718 15.2805 6.28053 13.1539 6.28053 10.5305ZM11.0305 7.28053C9.23561 7.28053 7.78053 8.73561 7.78053 10.5305C7.78053 12.3255 9.23561 13.7805 11.0305 13.7805C12.8255 13.7805 14.2805 12.3255 14.2805 10.5305C14.2805 8.73561 12.8255 7.28053 11.0305 7.28053Z" fill="white"/>
</svg>
