<svg width="41" height="42" viewBox="0 0 41 42" fill="none" xmlns="http://www.w3.org/2000/svg">
<path d="M21.5 17.7727C23 17.7727 24.2273 19 24.2273 20.5C24.2273 22 23 23.2273 21.5 23.2273C20 23.2273 18.7727 22 18.7727 20.5C18.7727 19 20 17.7727 21.5 17.7727ZM21.5 15.9545C18.9909 15.9545 16.9545 17.9909 16.9545 20.5C16.9545 23.0091 18.9909 25.0455 21.5 25.0455C24.0091 25.0455 26.0455 23.0091 26.0455 20.5C26.0455 17.9909 24.0091 15.9545 21.5 15.9545ZM12.4091 21.4091H14.2273C14.7273 21.4091 15.1364 21 15.1364 20.5C15.1364 20 14.7273 19.5909 14.2273 19.5909H12.4091C11.9091 19.5909 11.5 20 11.5 20.5C11.5 21 11.9091 21.4091 12.4091 21.4091ZM28.7727 21.4091H30.5909C31.0909 21.4091 31.5 21 31.5 20.5C31.5 20 31.0909 19.5909 30.5909 19.5909H28.7727C28.2727 19.5909 27.8636 20 27.8636 20.5C27.8636 21 28.2727 21.4091 28.7727 21.4091ZM20.5909 11.4091V13.2273C20.5909 13.7273 21 14.1364 21.5 14.1364C22 14.1364 22.4091 13.7273 22.4091 13.2273V11.4091C22.4091 10.9091 22 10.5 21.5 10.5C21 10.5 20.5909 10.9091 20.5909 11.4091ZM20.5909 27.7727V29.5909C20.5909 30.0909 21 30.5 21.5 30.5C22 30.5 22.4091 30.0909 22.4091 29.5909V27.7727C22.4091 27.2727 22 26.8636 21.5 26.8636C21 26.8636 20.5909 27.2727 20.5909 27.7727ZM16.0364 13.7545C15.6818 13.4 15.1 13.4 14.7545 13.7545C14.4 14.1091 14.4 14.6909 14.7545 15.0364L15.7182 16C16.0727 16.3545 16.6545 16.3545 17 16C17.3455 15.6455 17.3545 15.0636 17 14.7182L16.0364 13.7545ZM27.2818 25C26.9273 24.6455 26.3455 24.6455 26 25C25.6455 25.3545 25.6455 25.9364 26 26.2818L26.9636 27.2455C27.3182 27.6 27.9 27.6 28.2455 27.2455C28.6 26.8909 28.6 26.3091 28.2455 25.9636L27.2818 25ZM28.2455 15.0364C28.6 14.6818 28.6 14.1 28.2455 13.7545C27.8909 13.4 27.3091 13.4 26.9636 13.7545L26 14.7182C25.6455 15.0727 25.6455 15.6545 26 16C26.3545 16.3455 26.9364 16.3545 27.2818 16L28.2455 15.0364ZM17 26.2818C17.3545 25.9273 17.3545 25.3455 17 25C16.6455 24.6455 16.0636 24.6455 15.7182 25L14.7545 25.9636C14.4 26.3182 14.4 26.9 14.7545 27.2455C15.1091 27.5909 15.6909 27.6 16.0364 27.2455L17 26.2818Z" fill="url(#paint0_linear_2208_17836)"/>
<rect x="0.5" y="1" width="40" height="40" rx="20" stroke="url(#paint1_radial_2208_17836)"/>
<defs>
<linearGradient id="paint0_linear_2208_17836" x1="31.5" y1="30.5" x2="7.78421" y2="17.0537" gradientUnits="userSpaceOnUse">
<stop stop-color="#7684FF"/>
<stop offset="1" stop-color="#FFD076"/>
</linearGradient>
<radialGradient id="paint1_radial_2208_17836" cx="0" cy="0" r="1" gradientUnits="userSpaceOnUse" gradientTransform="translate(30.8168 31.8776) rotate(-114.675) scale(44.5061 35.8127)">
<stop stop-color="#EBEDFF"/>
<stop offset="0.786458" stop-color="#FFF2E3"/>
<stop offset="1" stop-color="#FEFDF8"/>
</radialGradient>
</defs>
</svg>
