<svg width="30" height="30" viewBox="0 0 30 30" fill="none" xmlns="http://www.w3.org/2000/svg">
<path fill-rule="evenodd" clip-rule="evenodd" d="M7.92706 22.5236C12.9467 21.7902 16.4029 21.8533 21.4292 22.5492C21.7932 22.602 22.1258 22.7847 22.3656 23.0636C22.6054 23.3425 22.7362 23.6987 22.7338 24.0665C22.7338 24.4185 22.6128 24.7602 22.3943 25.0272C22.0134 25.4926 21.6232 25.9503 21.2239 26.4H23.1606C23.2823 26.2548 23.4048 26.1066 23.5287 25.9563C23.9637 25.4229 24.201 24.7555 24.2005 24.0672C24.2005 22.5822 23.1166 21.3026 21.6301 21.0972C16.4851 20.3852 12.8888 20.317 7.71512 21.073C6.21326 21.2923 5.13379 22.5918 5.13379 24.087C5.13379 24.7507 5.35012 25.407 5.76006 25.9387C5.88106 26.0956 6.00059 26.2496 6.11939 26.4007H8.00919C7.6377 25.9559 7.27536 25.5036 6.92239 25.044C6.71263 24.7689 6.59947 24.4323 6.60046 24.0863C6.60046 23.2965 7.16806 22.6343 7.92706 22.5236ZM14.6671 15.4C15.2449 15.4 15.8171 15.2862 16.3509 15.065C16.8848 14.8439 17.3698 14.5198 17.7784 14.1112C18.187 13.7027 18.5111 13.2176 18.7322 12.6838C18.9533 12.1499 19.0671 11.5778 19.0671 11C19.0671 10.4222 18.9533 9.84999 18.7322 9.31616C18.5111 8.78233 18.187 8.29728 17.7784 7.8887C17.3698 7.48012 16.8848 7.15602 16.3509 6.9349C15.8171 6.71378 15.2449 6.59997 14.6671 6.59997C13.5002 6.59997 12.381 7.06354 11.5559 7.8887C10.7307 8.71386 10.2671 9.83301 10.2671 11C10.2671 12.1669 10.7307 13.2861 11.5559 14.1112C12.381 14.9364 13.5002 15.4 14.6671 15.4ZM14.6671 16.8666C16.2231 16.8666 17.7153 16.2485 18.8155 15.1483C19.9157 14.0481 20.5338 12.5559 20.5338 11C20.5338 9.44403 19.9157 7.95182 18.8155 6.85161C17.7153 5.75139 16.2231 5.1333 14.6671 5.1333C13.1112 5.1333 11.619 5.75139 10.5188 6.85161C9.41855 7.95182 8.80046 9.44403 8.80046 11C8.80046 12.5559 9.41855 14.0481 10.5188 15.1483C11.619 16.2485 13.1112 16.8666 14.6671 16.8666Z" fill="url(#paint0_radial_2233_20125)"/>
<path fill-rule="evenodd" clip-rule="evenodd" d="M14.6667 27.8667C21.9567 27.8667 27.8667 21.9567 27.8667 14.6667C27.8667 7.3766 21.9567 1.46667 14.6667 1.46667C7.3766 1.46667 1.46667 7.3766 1.46667 14.6667C1.46667 21.9567 7.3766 27.8667 14.6667 27.8667ZM14.6667 29.3333C22.7671 29.3333 29.3333 22.7671 29.3333 14.6667C29.3333 6.56627 22.7671 0 14.6667 0C6.56627 0 0 6.56627 0 14.6667C0 22.7671 6.56627 29.3333 14.6667 29.3333Z" fill="url(#paint1_radial_2233_20125)"/>
<defs>
<radialGradient id="paint0_radial_2233_20125" cx="0" cy="0" r="1" gradientUnits="userSpaceOnUse" gradientTransform="translate(19.4648 21.4094) rotate(-112.386) scale(22.6878 16.9467)">
<stop stop-color="#EBEDFF"/>
<stop offset="0.786458" stop-color="#FFF2E3"/>
<stop offset="1" stop-color="#FEFDF8"/>
</radialGradient>
<radialGradient id="paint1_radial_2233_20125" cx="0" cy="0" r="1" gradientUnits="userSpaceOnUse" gradientTransform="translate(22.0478 22.449) rotate(-114.675) scale(31.8418 25.6221)">
<stop stop-color="#EBEDFF"/>
<stop offset="0.786458" stop-color="#FFF2E3"/>
<stop offset="1" stop-color="#FEFDF8"/>
</radialGradient>
</defs>
</svg>
