<svg width="30" height="26" viewBox="0 0 30 26" fill="none" xmlns="http://www.w3.org/2000/svg">
<path d="M20.8594 14.4167C20.6038 14.4167 20.3587 14.51 20.178 14.676C19.9973 14.842 19.8958 15.0673 19.8958 15.3021C19.8958 15.5369 19.9973 15.7621 20.178 15.9282C20.3587 16.0942 20.6038 16.1875 20.8594 16.1875H24.3281C24.5837 16.1875 24.8288 16.0942 25.0095 15.9282C25.1902 15.7621 25.2917 15.5369 25.2917 15.3021C25.2917 15.0673 25.1902 14.842 25.0095 14.676C24.8288 14.51 24.5837 14.4167 24.3281 14.4167H20.8594ZM0.625 3.08333V21.3229C0.625 22.4971 1.13258 23.6231 2.03607 24.4533C2.93957 25.2836 4.16497 25.75 5.44271 25.75H24.3281C25.6059 25.75 26.8313 25.2836 27.7348 24.4533C28.6383 23.6231 29.1458 22.4971 29.1458 21.3229V8.92708C29.1458 7.90658 28.7622 6.9174 28.0599 6.12686C27.3576 5.33631 26.3797 4.7929 25.2917 4.58854V3.26042C25.2917 2.462 24.9465 1.69629 24.3321 1.13173C23.7178 0.567168 22.8845 0.25 22.0156 0.25H3.90104C3.06549 0.249935 2.26149 0.543246 1.65352 1.06993C1.04554 1.59661 0.679546 2.31686 0.630396 3.08333H0.625ZM23.3646 3.26042V4.5H3.90104C3.54328 4.5 3.20016 4.3694 2.94718 4.13693C2.69421 3.90447 2.55208 3.58917 2.55208 3.26042C2.55208 2.93166 2.69421 2.61637 2.94718 2.3839C3.20016 2.15143 3.54328 2.02083 3.90104 2.02083H22.0156C22.761 2.02083 23.3646 2.57617 23.3646 3.26042ZM2.55208 6.27083H24.3281C25.0948 6.27083 25.83 6.55069 26.3721 7.04883C26.9142 7.54697 27.2188 8.2226 27.2188 8.92708V21.3229C27.2188 22.0274 26.9142 22.703 26.3721 23.2012C25.83 23.6993 25.0948 23.9792 24.3281 23.9792H5.44271C4.67607 23.9792 3.94083 23.6993 3.39873 23.2012C2.85663 22.703 2.55208 22.0274 2.55208 21.3229V6.27083Z" fill="url(#paint0_radial_2233_21829)"/>
<defs>
<radialGradient id="paint0_radial_2233_21829" cx="0" cy="0" r="1" gradientUnits="userSpaceOnUse" gradientTransform="translate(22.0621 19.7653) rotate(-117.196) scale(28.2795 24.3848)">
<stop stop-color="#EBEDFF"/>
<stop offset="0.786458" stop-color="#FFF2E3"/>
<stop offset="1" stop-color="#FEFDF8"/>
</radialGradient>
</defs>
</svg>
