<svg width="874" height="326" viewBox="0 0 874 326" fill="none" xmlns="http://www.w3.org/2000/svg">
<g filter="url(#filter0_d_2502_17438)">
<path d="M24 36.5518L820.835 20.3257C829.67 20.1458 836.977 27.1619 837.157 35.9966L841.99 273.302L45.1547 289.528C36.32 289.708 29.0122 282.692 28.8323 273.857L24 36.5518Z" fill="url(#paint0_radial_2502_17438)"/>
<path d="M140.116 145.887L153.073 145.624L135.608 89.5675L109.214 90.105L94.1252 146.824L107.082 146.56L111.753 128.381L134.629 127.915L140.116 145.887ZM114.645 117.12L120.876 93.0682L124.076 93.003L131.281 116.781L114.645 117.12ZM158.677 105.101L159.809 160.69L172.606 160.429L172.246 142.753L169.7 135.603L172.899 135.538C175.088 140.854 179.031 145.895 189.029 145.692C200.707 145.454 206.352 135.817 206.119 124.379C205.886 112.942 199.852 103.462 188.174 103.7C178.176 103.904 174.441 109.101 172.471 114.502L169.272 114.567L171.524 107.32L171.474 104.841L158.677 105.101ZM171.886 125.076C171.746 118.198 175.525 115.16 182.403 115.02C189.282 114.88 193.182 117.761 193.322 124.64C193.462 131.518 189.681 134.476 182.803 134.616C175.924 134.756 172.026 131.955 171.886 125.076ZM210.541 104.045L211.673 159.633L224.47 159.373L224.11 141.697L221.564 134.547L224.763 134.482C226.952 139.798 230.896 144.839 240.894 144.635C252.571 144.398 258.216 134.761 257.983 123.323C257.75 111.885 251.716 102.406 240.038 102.644C230.041 102.848 226.306 108.045 224.335 113.446L221.136 113.511L223.389 106.264L223.338 103.784L210.541 104.045ZM223.75 124.02C223.61 117.142 227.389 114.104 234.268 113.964C241.146 113.824 245.046 116.705 245.186 123.584C245.326 130.462 241.545 133.42 234.667 133.56C227.788 133.7 223.89 130.899 223.75 124.02ZM261.609 143.413L296.802 142.697L296.574 131.499L285.376 131.727L284.533 90.2957C284.441 85.8167 281.913 83.4677 277.437 83.7188L262.012 84.5931L262.24 95.7907L271.828 95.1154L272.579 131.988L261.381 132.216L261.609 143.413ZM328.084 101.651L319.739 124.066L319.869 130.465L316.67 130.53L316.539 124.131L307.208 102.077L292.811 102.37L312.061 139.986L312.217 147.664L298.375 147.706L298.603 158.903L318.371 159.061C322.773 159.131 325.204 156.681 325.113 152.202L324.858 139.725L342.561 101.357L328.084 101.651ZM390.374 130.389L389.991 111.593L403.268 111.323L403.04 100.125L389.763 100.395L389.527 88.7979L376.811 93.0576L376.966 100.656L367.368 100.851L367.596 112.049L377.194 111.854L377.666 135.049C377.756 139.448 380.207 141.959 384.603 141.709L405.463 140.484L405.234 129.286L390.374 130.389ZM408.217 120.184C408.505 134.341 418.723 141.014 431.44 140.755C444.078 140.498 454.016 133.414 453.727 119.257C453.441 105.18 443.223 98.5067 430.585 98.764C417.868 99.023 407.93 106.107 408.217 120.184ZM421.014 119.923C420.877 113.205 424.735 110.085 430.813 109.962C436.812 109.84 440.793 112.799 440.93 119.518C441.068 126.316 437.211 129.435 431.212 129.558C425.134 129.681 421.152 126.722 421.014 119.923ZM482.188 138.922L517.381 138.205L517.153 127.007L505.955 127.235L505.112 85.804C505.021 81.325 502.492 78.976 498.016 79.2271L482.591 80.1014L482.819 91.299L492.407 90.6237L493.158 127.496L481.96 127.724L482.188 138.922ZM521.193 127.085C521.278 131.244 523.594 138.879 536.151 138.623C547.429 138.393 551.232 132.635 552.615 125.885L555.815 125.82L553.913 130.66L553.929 131.46C554.007 135.299 556.211 137.414 560.05 137.336L568.928 137.155L568.7 125.958L562.861 126.077L562.63 114.719C562.36 101.442 552.492 96.2816 541.375 96.508C530.097 96.7376 521.501 102.914 521.71 113.152L533.707 112.907C533.632 109.228 536.468 107.01 541.586 106.906C547.105 106.793 549.706 108.741 549.772 112.02L537.091 114.039C525.127 115.963 521.051 120.127 521.193 127.085ZM533.942 124.425C533.894 122.106 535.803 121.507 539.63 120.869L549.919 119.219C550.02 124.178 545.441 127.232 538.403 127.375C536.243 127.419 533.989 126.745 533.942 124.425ZM593.814 126.247C587.655 126.372 585.439 123.617 585.289 116.258L584.885 96.4221L572.088 96.6827L572.532 118.518C572.787 130.996 579.165 137.747 589.483 137.537C598.121 137.361 603.045 131.58 604.498 124.349L607.697 124.283L605.444 131.531L605.544 136.41L618.341 136.149L617.518 95.7576L604.721 96.0182L605.026 110.975C605.257 122.333 600.773 126.105 593.814 126.247ZM648.419 105.531C654.578 105.405 656.795 108.161 656.945 115.519L657.348 135.355L670.146 135.094L669.701 113.259C669.447 100.781 663.068 94.0299 652.75 94.24C644.112 94.4159 639.189 100.197 637.736 107.428L634.536 107.494L636.789 100.246L636.69 95.3672L623.893 95.6278L624.715 136.019L637.513 135.759L637.208 120.802C636.977 109.444 641.461 105.672 648.419 105.531ZM674.49 114.762C674.765 128.279 684.116 135.61 696.993 135.348C708.031 135.123 717.987 128.919 718.312 117.39L705.515 117.651C705.108 121.26 701.884 124.046 696.765 124.15C690.687 124.274 687.414 120.74 687.287 114.501C687.162 108.342 690.288 104.678 696.366 104.554C701.485 104.45 704.82 107.103 705.373 110.692L718.17 110.432C717.376 98.9253 707.176 93.1317 696.138 93.3565C683.261 93.6187 674.216 101.324 674.49 114.762ZM751.48 92.2296C742.842 92.4055 737.918 98.1869 736.465 105.418L733.266 105.483L735.519 98.2358L735.045 74.9606L722.248 75.2212L723.445 134.009L736.242 133.748L735.938 118.792C735.706 107.434 740.19 103.662 747.149 103.52C753.308 103.395 755.524 106.15 755.674 113.509L756.078 133.344L768.875 133.084L768.431 111.248C768.177 98.771 761.798 92.0195 751.48 92.2296ZM259.547 207.069L266.048 247.345L292.763 246.801L295.125 209.545L298.324 209.48L302.201 246.608L328.915 246.064L333.772 205.557L321.614 205.805L317.093 243.105L313.893 243.17L310.016 206.041L283.302 206.585L280.94 243.841L277.741 243.906L271.784 206.819L259.547 207.069ZM353.484 201.155C358.203 201.059 361.117 198.759 361.032 194.6C360.949 190.521 357.943 188.261 353.224 188.358C348.505 188.454 345.752 190.83 345.835 194.909C345.92 199.069 348.765 201.251 353.484 201.155ZM337.831 245.883L373.024 245.166L372.796 233.969L361.359 234.201L360.885 210.926C360.793 206.447 358.263 204.018 353.789 204.349L338.609 205.459L338.837 216.656L348.665 215.976L349.041 234.452L337.603 234.685L337.831 245.883ZM391.983 234.378L391.601 215.582L404.878 215.312L404.65 204.114L391.373 204.384L391.137 192.787L378.421 197.046L378.575 204.645L368.977 204.84L369.205 216.038L378.803 215.843L379.276 239.038C379.365 243.437 381.817 245.947 386.213 245.698L407.072 244.473L406.844 233.275L391.983 234.378ZM441.514 202.563C432.875 202.739 427.952 208.52 426.499 215.751L423.3 215.817L425.553 208.569L425.079 185.294L412.281 185.555L413.478 244.342L426.276 244.082L425.971 229.125C425.74 217.767 430.224 213.995 437.183 213.854C443.341 213.728 445.558 216.484 445.708 223.842L446.112 243.678L458.909 243.417L458.464 221.582C458.21 209.104 451.831 202.353 441.514 202.563ZM510.207 231.971C504.048 232.096 501.832 229.341 501.682 221.982L501.278 202.146L488.481 202.407L488.925 224.242C489.179 236.72 495.558 243.471 505.876 243.261C514.514 243.085 519.438 237.304 520.891 230.073L524.09 230.008L521.837 237.255L521.936 242.134L534.734 241.873L533.911 201.482L521.114 201.742L521.419 216.699C521.65 228.057 517.166 231.829 510.207 231.971ZM579.413 229.841C579.242 221.443 572.003 219.59 564.112 217.19C557.671 215.241 553.648 214.123 553.609 212.203C553.576 210.603 555.241 209.849 558.28 209.787C562.68 209.698 564.883 211.813 564.942 214.693L577.739 214.432C577.579 206.594 571.842 199.909 558.165 200.188C547.047 200.414 540.653 204.705 540.8 211.904C540.984 220.942 550.223 222.754 557.792 225.08C564.314 227.108 566.565 227.622 566.608 229.702C566.647 231.621 564.503 232.465 561.064 232.535C554.346 232.672 552.131 229.997 552.067 226.877L539.27 227.138C539.462 236.576 545.983 242.444 560.86 242.141C574.777 241.858 579.552 236.64 579.413 229.841ZM588.072 184.376L591.198 219.999L599.196 219.836L600.869 184.115L588.072 184.376ZM595.555 241.435C600.834 241.327 604.355 237.415 604.252 232.376C604.153 227.497 600.476 223.731 595.197 223.839C589.758 223.949 586.557 227.855 586.656 232.734C586.759 237.773 590.116 241.546 595.555 241.435Z" fill="black"/>
<path d="M24.5101 37.0415L820.845 20.8256C829.404 20.6513 836.483 27.4481 836.657 36.0068L841.479 272.812L45.1445 289.028C36.5859 289.202 29.5065 282.405 29.3322 273.847L24.5101 37.0415Z" stroke="#A7A9B9"/>
</g>
<circle cx="182.5" cy="125.5" r="7.5" fill="#4D55A6"/>
<circle cx="234.5" cy="123.5" r="7.5" fill="#F3BB1C"/>
<defs>
<filter id="filter0_d_2502_17438" x="0" y="0" width="873.99" height="325.854" filterUnits="userSpaceOnUse" color-interpolation-filters="sRGB">
<feFlood flood-opacity="0" result="BackgroundImageFix"/>
<feColorMatrix in="SourceAlpha" type="matrix" values="0 0 0 0 0 0 0 0 0 0 0 0 0 0 0 0 0 0 127 0" result="hardAlpha"/>
<feOffset dx="4" dy="8"/>
<feGaussianBlur stdDeviation="14"/>
<feComposite in2="hardAlpha" operator="out"/>
<feColorMatrix type="matrix" values="0 0 0 0 0 0 0 0 0 0 0 0 0 0 0 0 0 0 0.29 0"/>
<feBlend mode="normal" in2="BackgroundImageFix" result="effect1_dropShadow_2502_17438"/>
<feBlend mode="normal" in="SourceGraphic" in2="effect1_dropShadow_2502_17438" result="shape"/>
</filter>
<radialGradient id="paint0_radial_2502_17438" cx="0" cy="0" r="1" gradientUnits="userSpaceOnUse" gradientTransform="translate(638.895 217.964) rotate(-147.018) scale(445.192 438.693)">
<stop stop-color="#EBEDFF"/>
<stop offset="0.786458" stop-color="#FFF2E3"/>
<stop offset="1" stop-color="#FEFDF8"/>
</radialGradient>
</defs>
</svg>
