<svg width="873" height="234" viewBox="0 0 873 234" fill="none" xmlns="http://www.w3.org/2000/svg">
<g filter="url(#filter0_d_2501_17440)">
<path d="M24.4468 36.5518L821.282 20.3257C830.116 20.1458 837.424 27.1619 837.604 35.9966L840.553 180.821L43.7184 197.047C34.8836 197.227 27.5758 190.211 27.3959 181.376L24.4468 36.5518Z" fill="url(#paint0_radial_2501_17440)"/>
<path d="M82.9255 116.873C83.3281 136.645 96.8802 151.444 118.38 151.007C137.288 150.622 149.554 140.002 151.228 123.164L135.871 123.477C134.517 132.434 127.512 137.378 118.298 137.565C106.493 137.806 98.5676 130.574 98.2823 116.561C97.9989 102.643 105.623 95.0947 117.428 94.8543C126.642 94.6666 133.841 99.225 135.558 108.12L150.915 107.807C148.559 91.1477 135.871 81.0359 116.963 81.421C95.4632 81.8587 82.5248 97.1973 82.9255 116.873ZM156.021 124.987C156.367 141.975 168.628 149.983 183.889 149.673C199.054 149.364 210.979 140.863 210.633 123.875C210.289 106.982 198.028 98.9742 182.863 99.283C167.602 99.5937 155.677 108.094 156.021 124.987ZM171.378 124.674C171.213 116.612 175.842 112.869 183.137 112.72C190.335 112.574 195.112 116.125 195.277 124.187C195.443 132.346 190.814 136.089 183.616 136.235C176.321 136.384 171.544 132.832 171.378 124.674ZM281.736 97.2696C272.33 97.4612 268.13 103.404 266.386 112.081L263.603 112.138C261.991 103.721 258.029 97.7524 248.911 97.938C239.505 98.1296 235.209 104.074 233.465 112.752L229.626 112.83L232.33 104.133L232.23 99.2379L216.873 99.5506L217.86 148.021L233.217 147.708L232.871 130.719C232.632 119.01 234.404 111.676 242.754 111.506C248.417 111.391 250.005 113.951 250.193 123.165L250.685 147.352L266.042 147.039L265.696 130.051C265.458 118.341 267.229 111.008 275.579 110.838C281.242 110.722 282.83 113.283 283.018 122.497L283.51 146.684L298.867 146.371L298.353 121.128C298.087 108.075 294.117 97.0175 281.736 97.2696ZM323.393 92.5806C329.056 92.4653 332.552 89.7055 332.45 84.7145C332.351 79.8195 328.743 77.1084 323.08 77.2237C317.417 77.3391 314.115 80.1909 314.214 85.0859C314.316 90.0768 317.73 92.6959 323.393 92.5806ZM304.61 146.254L346.841 145.394L346.567 131.957L332.842 132.236L332.273 104.306C332.164 98.9313 329.128 96.0165 323.759 96.4139L305.542 97.7451L305.816 111.182L317.61 110.366L318.061 132.537L304.336 132.817L304.61 146.254ZM381.09 108.689C388.48 108.539 391.14 111.845 391.32 120.675L391.804 144.479L407.161 144.166L406.628 117.963C406.323 102.99 398.668 94.8885 386.287 95.1406C375.921 95.3517 370.013 102.289 368.269 110.967L364.43 111.045L367.134 102.348L367.014 96.4933L351.658 96.806L352.645 145.276L368.001 144.963L367.636 127.015C367.358 113.386 372.739 108.859 381.09 108.689ZM469.684 94.4026C465.365 94.4906 460.384 95.0721 457.58 98.8739C452.417 95.2343 445.669 93.9314 438.279 94.0819C423.018 94.3927 411.05 100.782 411.31 113.547C411.634 129.48 430.403 131.69 448.03 124.994L448.108 128.833C439.321 131.124 429.363 132.479 418.348 133.856L420.156 142.461C434.982 139.662 452.29 136.141 452.435 143.244C452.542 148.523 446.601 149.124 415.216 149.763L415.489 163.2C451.482 162.467 468.245 160.494 467.954 146.193C467.745 135.923 457.416 133.252 446.392 134.149C459.642 129.366 468.067 123.434 467.881 114.315C467.828 111.724 467.015 109.532 466.424 108.776C467.75 107.885 469.478 107.85 470.917 107.82L474.181 107.754L473.907 94.3166L469.684 94.4026ZM439.774 120.361C430.56 120.549 426.77 118.321 426.686 114.194C426.604 110.163 430.298 107.687 439.512 107.5C448.726 107.312 452.422 109.637 452.505 113.668C452.589 117.795 448.988 120.173 439.774 120.361ZM567.743 122.268C567.456 108.159 548.246 103.173 535.683 99.2039C524.763 95.7775 523.108 94.659 523.045 91.5876C522.975 88.1324 527.263 86.5087 534.173 86.368C542.523 86.198 548.905 88.3725 549.073 96.6268L564.43 96.3141C564.156 82.8769 554.631 72.5086 533.9 72.9308C516.431 73.2865 507.442 79.8069 507.677 91.3245C507.946 104.57 519.638 108.172 534.037 112.68C543.991 115.838 552.29 117.878 552.39 122.773C552.464 126.42 549.248 128.79 539.362 128.991C525.925 129.265 520.675 126.107 520.464 115.741L505.108 116.054C505.455 133.138 514.777 142.935 539.156 142.438C559.983 142.014 567.98 133.882 567.743 122.268ZM572.466 116.507C572.812 133.495 585.073 141.503 600.334 141.192C615.499 140.884 627.424 132.383 627.078 115.395C626.734 98.5021 614.473 90.494 599.308 90.8028C584.047 91.1136 572.122 99.6142 572.466 116.507ZM587.823 116.194C587.658 108.132 592.287 104.389 599.582 104.24C606.78 104.093 611.557 107.645 611.722 115.707C611.888 123.866 607.259 127.609 600.06 127.755C592.766 127.904 587.989 124.352 587.823 116.194ZM631.891 115.297C632.237 132.285 644.498 140.293 659.759 139.982C674.924 139.674 686.85 131.173 686.504 114.184C686.16 97.292 673.898 89.284 658.733 89.5928C643.472 89.9035 631.547 98.4041 631.891 115.297ZM647.248 114.984C647.084 106.922 651.712 103.179 659.007 103.03C666.205 102.883 670.983 106.435 671.147 114.497C671.313 122.656 666.684 126.399 659.486 126.545C652.191 126.694 647.414 123.142 647.248 114.984ZM722.175 101.744C729.566 101.593 732.226 104.9 732.405 113.73L732.89 137.533L748.247 137.22L747.713 111.018C747.408 96.0448 739.754 87.9429 727.372 88.195C717.007 88.4061 711.099 95.3438 709.355 104.021L705.516 104.099L708.219 95.4025L708.1 89.5477L692.743 89.8604L693.73 138.33L709.087 138.018L708.721 120.069C708.444 106.44 713.825 101.914 722.175 101.744ZM761.24 69.2616L764.992 112.01L774.59 111.815L776.597 68.9489L761.24 69.2616ZM770.22 137.733C776.555 137.604 780.78 132.909 780.657 126.862C780.538 121.007 776.125 116.488 769.79 116.617C763.264 116.75 759.422 121.437 759.542 127.292C759.665 133.339 763.694 137.866 770.22 137.733Z" fill="#222751"/>
<path d="M24.9569 37.0415L821.292 20.8256C829.85 20.6513 836.93 27.4481 837.104 36.0068L840.043 180.331L43.7082 196.547C35.1495 196.722 28.0701 189.925 27.8958 181.366L24.9569 37.0415Z" stroke="#A7A9B9"/>
</g>
<circle cx="183" cy="124" r="6" fill="#4D55A6"/>
<circle cx="379.5" cy="120.5" r="6.5" fill="#F3BB1C"/>
<defs>
<filter id="filter0_d_2501_17440" x="0.446838" y="0" width="872.106" height="233.373" filterUnits="userSpaceOnUse" color-interpolation-filters="sRGB">
<feFlood flood-opacity="0" result="BackgroundImageFix"/>
<feColorMatrix in="SourceAlpha" type="matrix" values="0 0 0 0 0 0 0 0 0 0 0 0 0 0 0 0 0 0 127 0" result="hardAlpha"/>
<feOffset dx="4" dy="8"/>
<feGaussianBlur stdDeviation="14"/>
<feComposite in2="hardAlpha" operator="out"/>
<feColorMatrix type="matrix" values="0 0 0 0 0 0 0 0 0 0 0 0 0 0 0 0 0 0 0.29 0"/>
<feBlend mode="normal" in2="BackgroundImageFix" result="effect1_dropShadow_2501_17440"/>
<feBlend mode="normal" in="SourceGraphic" in2="effect1_dropShadow_2501_17440" result="shape"/>
</filter>
<radialGradient id="paint0_radial_2501_17440" cx="0" cy="0" r="1" gradientUnits="userSpaceOnUse" gradientTransform="translate(637.901 147.188) rotate(-157.867) scale(401.145 309.109)">
<stop stop-color="#EBEDFF"/>
<stop offset="0.786458" stop-color="#FFF2E3"/>
<stop offset="1" stop-color="#FEFDF8"/>
</radialGradient>
</defs>
</svg>
