<svg width="369" height="172" viewBox="0 0 369 172" fill="none" xmlns="http://www.w3.org/2000/svg">
<g filter="url(#filter0_d_2364_17273)">
<path d="M24 30.6396L333.669 20.5223C342.5 20.2338 349.751 27.1627 349.863 35.9986L351 125.582L41.3315 135.7C32.4996 135.988 25.2491 129.059 25.137 120.223L24 30.6396Z" fill="url(#paint0_radial_2364_17273)"/>
<path d="M75.7381 77.0874C75.8481 82.4935 79.5877 85.4255 84.7374 85.3206C89.1514 85.2307 93.1327 82.7495 93.2628 78.1386L88.1451 78.2429C87.9825 79.6862 86.6933 80.8006 84.6462 80.8422C82.2153 80.8917 80.9065 79.4783 80.8557 76.9832C80.8056 74.5201 82.0557 73.0546 84.4866 73.0051C86.5337 72.9634 87.8672 74.0243 88.0884 75.4599L93.2061 75.3556C92.8884 70.7539 88.8094 68.4368 84.3954 68.5267C79.2457 68.6315 75.6286 71.7134 75.7381 77.0874ZM94.8232 76.6988C94.9385 82.3607 99.0247 85.0297 104.11 84.9261C109.164 84.8232 113.138 81.9901 113.023 76.3282C112.908 70.6982 108.822 68.0293 103.768 68.1322C98.6827 68.2357 94.7085 71.0688 94.8232 76.6988ZM99.9408 76.5946C99.8861 73.9075 101.429 72.6601 103.86 72.6106C106.258 72.5617 107.851 73.7454 107.905 76.4324C107.961 79.1514 106.418 80.3989 104.019 80.4477C101.588 80.4972 99.9962 79.3136 99.9408 76.5946ZM136.718 67.4612C133.583 67.5251 132.184 69.5057 131.603 72.3976L130.675 72.4165C130.138 69.6113 128.818 67.6221 125.779 67.684C122.644 67.7478 121.213 69.7291 120.632 72.6211L119.352 72.6471L120.253 69.7486L120.22 68.1172L115.102 68.2214L115.431 84.3756L120.549 84.2714L120.434 78.6094C120.354 74.7068 120.944 72.2627 123.727 72.206C125.614 72.1676 126.144 73.0208 126.206 76.0917L126.37 84.1528L131.488 84.0486L131.373 78.3867C131.293 74.4841 131.883 72.0399 134.666 71.9832C136.553 71.9448 137.083 72.7981 137.145 75.869L137.309 83.9301L142.427 83.8259L142.256 75.4129C142.167 71.0625 140.844 67.3772 136.718 67.4612ZM150.6 65.8985C152.487 65.86 153.652 64.9403 153.619 63.2769C153.585 61.6455 152.383 60.7419 150.496 60.7803C148.609 60.8187 147.508 61.7692 147.541 63.4006C147.575 65.064 148.713 65.9369 150.6 65.8985ZM144.341 83.7869L158.414 83.5003L158.323 79.0219L153.749 79.1151L153.56 69.8064C153.523 68.0151 152.511 67.0436 150.722 67.1761L144.651 67.6197L144.743 72.0981L148.673 71.826L148.823 79.2154L144.249 79.3085L144.341 83.7869ZM169.828 71.2672C172.291 71.2171 173.177 72.3191 173.237 75.262L173.398 83.1952L178.516 83.091L178.338 74.3581C178.237 69.3679 175.686 66.6677 171.56 66.7517C168.105 66.8221 166.136 69.1343 165.555 72.0263L164.276 72.0523L165.177 69.1538L165.137 67.2025L160.019 67.3067L160.348 83.4609L165.466 83.3567L165.344 77.3749C165.252 72.8325 167.045 71.3239 169.828 71.2672ZM199.352 66.5058C197.912 66.5351 196.252 66.7289 195.318 67.996C193.598 66.783 191.349 66.3488 188.886 66.3989C183.8 66.5025 179.812 68.6318 179.899 72.8863C180.007 78.1964 186.261 78.933 192.136 76.7013L192.162 77.9808C189.233 78.7445 185.915 79.1961 182.244 79.6549L182.847 82.5228C187.787 81.5901 193.555 80.4166 193.604 82.7837C193.639 84.5431 191.66 84.7434 181.2 84.9564L181.291 89.4348C193.286 89.1906 198.872 88.5328 198.775 83.7665C198.706 80.3437 195.264 79.4538 191.59 79.7526C196.005 78.1586 198.813 76.1813 198.751 73.1424C198.733 72.2787 198.463 71.5482 198.265 71.2962C198.707 70.9992 199.283 70.9875 199.763 70.9777L200.85 70.9555L200.759 66.4772L199.352 66.5058ZM189.384 75.1572C186.314 75.2198 185.051 74.4774 185.023 73.1019C184.995 71.7584 186.226 70.9333 189.297 70.8708C192.368 70.8083 193.599 71.5832 193.627 72.9267C193.655 74.3022 192.455 75.0947 189.384 75.1572ZM227.268 77.65C227.2 74.2912 224.305 73.5501 221.149 72.5903C218.574 71.8107 216.965 71.3634 216.949 70.5957C216.936 69.956 217.602 69.6544 218.817 69.6296C220.576 69.5938 221.458 70.4399 221.481 71.5915L226.599 71.4873C226.535 68.3524 224.241 65.679 218.771 65.7904C214.325 65.8809 211.768 67.5971 211.827 70.476C211.9 74.0907 215.595 74.8155 218.622 75.7459C221.23 76.5569 222.13 76.7626 222.147 77.5943C222.163 78.362 221.306 78.6994 219.93 78.7275C217.244 78.7822 216.358 77.7121 216.332 76.4646L211.215 76.5688C211.292 80.3434 213.899 82.6905 219.849 82.5693C225.414 82.456 227.324 80.369 227.268 77.65ZM228.794 73.9707C228.909 79.6327 232.995 82.3016 238.081 82.1981C243.135 82.0951 247.109 79.2621 246.993 73.6001C246.879 67.9701 242.793 65.3012 237.739 65.4041C232.653 65.5077 228.679 68.3407 228.794 73.9707ZM233.911 73.8665C233.857 71.1795 235.399 69.932 237.83 69.8825C240.229 69.8336 241.821 71.0173 241.876 73.7043C241.931 76.4233 240.389 77.6708 237.99 77.7197C235.559 77.7692 233.967 76.5855 233.911 73.8665ZM248.597 73.5675C248.713 79.2294 252.799 81.8984 257.884 81.7948C262.938 81.6919 266.912 78.8588 266.797 73.1969C266.682 67.5669 262.596 64.8979 257.542 65.0008C252.457 65.1044 248.483 67.9375 248.597 73.5675ZM253.715 73.4632C253.66 70.7762 255.203 69.5287 257.634 69.4792C260.033 69.4304 261.625 70.614 261.679 73.3011C261.735 76.0201 260.192 77.2676 257.793 77.3164C255.362 77.3659 253.77 76.1823 253.715 73.4632ZM278.685 69.0506C281.147 69.0004 282.034 70.1024 282.094 73.0454L282.255 80.9785L287.373 80.8743L287.195 72.1414C287.094 67.1512 284.543 64.451 280.417 64.5351C276.962 64.6054 274.993 66.9176 274.412 69.8096L273.133 69.8357L274.034 66.9372L273.994 64.9859L268.876 65.0901L269.205 81.2443L274.323 81.14L274.201 75.1582C274.109 70.6158 275.902 69.1072 278.685 69.0506ZM291.703 58.2249L292.953 72.4722L296.152 72.4071L296.821 58.1207L291.703 58.2249ZM294.696 81.0452C296.807 81.0022 298.215 79.4375 298.174 77.4222C298.134 75.4709 296.663 73.9647 294.552 74.0077C292.377 74.052 291.097 75.6142 291.137 77.5655C291.178 79.5807 292.521 81.0895 294.696 81.0452Z" fill="#222751"/>
<path d="M24.5061 31.1233L333.675 21.0223C342.231 20.7427 349.255 27.4552 349.363 36.0149L350.494 125.099L41.3251 135.2C32.7693 135.479 25.7453 128.767 25.6367 120.207L24.5061 31.1233Z" stroke="#A7A9B9"/>
</g>
<defs>
<filter id="filter0_d_2364_17273" x="0" y="0" width="383" height="172.222" filterUnits="userSpaceOnUse" color-interpolation-filters="sRGB">
<feFlood flood-opacity="0" result="BackgroundImageFix"/>
<feColorMatrix in="SourceAlpha" type="matrix" values="0 0 0 0 0 0 0 0 0 0 0 0 0 0 0 0 0 0 127 0" result="hardAlpha"/>
<feOffset dx="4" dy="8"/>
<feGaussianBlur stdDeviation="14"/>
<feComposite in2="hardAlpha" operator="out"/>
<feColorMatrix type="matrix" values="0 0 0 0 0 0 0 0 0 0 0 0 0 0 0 0 0 0 0.29 0"/>
<feBlend mode="normal" in2="BackgroundImageFix" result="effect1_dropShadow_2364_17273"/>
<feBlend mode="normal" in="SourceGraphic" in2="effect1_dropShadow_2364_17273" result="shape"/>
</filter>
<radialGradient id="paint0_radial_2364_17273" cx="0" cy="0" r="1" gradientUnits="userSpaceOnUse" gradientTransform="translate(269.801 103.445) rotate(-146.295) scale(178.99 182.22)">
<stop stop-color="#EBEDFF"/>
<stop offset="0.786458" stop-color="#FFF2E3"/>
<stop offset="1" stop-color="#FEFDF8"/>
</radialGradient>
</defs>
</svg>
