<svg width="875" height="293" viewBox="0 0 875 293" fill="none" xmlns="http://www.w3.org/2000/svg">
<g filter="url(#filter0_d_2320_17250)">
<path d="M24.8447 36.5518L821.68 20.3257C830.514 20.1458 837.822 27.1619 838.002 35.9966L842.155 239.954L45.3204 256.18C36.4857 256.36 29.1779 249.344 28.998 240.509L24.8447 36.5518Z" fill="url(#paint0_radial_2320_17250)"/>
<path d="M69.5768 137.83C70.1808 167.488 90.5089 189.687 122.758 189.03C151.12 188.453 169.52 172.523 172.03 147.266L148.995 147.735C146.964 161.172 136.457 168.587 122.636 168.868C104.927 169.229 93.0401 158.381 92.6121 137.361C92.187 116.486 103.623 105.162 121.331 104.802C135.152 104.52 145.95 111.358 148.526 124.7L171.561 124.231C168.028 99.2419 148.995 84.0743 120.633 84.6518C88.3834 85.3085 68.9758 108.316 69.5768 137.83ZM181.772 135.546C182.376 165.203 202.416 187.408 234.666 186.751C266.771 186.098 285.891 163.096 285.287 133.438C284.686 103.924 264.646 81.7192 232.54 82.373C200.291 83.0297 181.171 106.032 181.772 135.546ZM204.808 135.077C204.412 115.641 213.803 102.919 232.951 102.529C252.099 102.139 261.856 114.471 262.252 133.907C262.65 153.487 253.403 166.206 234.255 166.596C215.107 166.985 205.206 154.656 204.808 135.077ZM299.395 183.993L322.43 183.524L320.774 102.181L316.161 87.8717L321.92 87.7544L340.138 183.163L384.769 182.254L399.088 86.1831L404.847 86.0658L400.821 100.551L402.478 181.894L425.513 181.425L423.446 79.9259L378.095 80.8493L365.216 176.891L359.457 177.009L342.679 81.5705L297.328 82.494L299.395 183.993ZM506 98.409L505.59 78.2531L436.484 79.6604L436.895 99.8162L459.93 99.3471L461.176 160.534L438.141 161.004L438.551 181.159L507.657 179.752L507.246 159.596L484.211 160.065L482.965 98.878L506 98.409ZM520.693 179.487L543.728 179.018L542.072 97.6744L537.459 83.3654L543.218 83.2481L575.833 178.364L621.184 177.44L619.117 75.9414L596.082 76.4104L597.738 157.754L602.351 172.063L596.592 172.18L563.977 77.0642L518.626 77.9877L520.693 179.487ZM631.679 126.384C632.312 157.482 649.444 178.305 679.822 177.687C707.752 177.118 719.861 156.419 719.357 124.599L725.116 124.481L721.119 140.406L721.831 175.391L744.867 174.922L743.964 130.579C743.803 122.661 739.395 118.429 731.477 118.591L678.496 119.67L678.848 136.946L702.315 136.468C702.594 150.145 694.096 157.232 680.275 157.513C663.574 157.853 655.172 148.374 654.714 125.915C654.26 103.6 664.429 93.7426 682.138 93.382C697.398 93.0712 705.143 98.5307 707.69 110.433L730.725 109.964C727.25 87.8544 707.21 72.7072 681.727 73.2261C652.357 73.8242 631.049 95.4305 631.679 126.384ZM765.788 72.9547L771.414 137.077L785.812 136.784L788.823 72.4856L765.788 72.9547ZM779.258 175.662C788.76 175.468 795.098 168.426 794.913 159.356C794.734 150.573 788.115 143.795 778.613 143.988C768.823 144.188 763.061 151.218 763.239 160.001C763.424 169.071 769.468 175.861 779.258 175.662Z" fill="#222751"/>
<path d="M25.3548 37.0415L821.69 20.8256C830.248 20.6513 837.328 27.4481 837.502 36.0068L841.645 239.465L45.3102 255.681C36.7516 255.855 29.6721 249.058 29.4979 240.499L25.3548 37.0415Z" stroke="#A7A9B9"/>
</g>
<circle cx="124.345" cy="137.5" r="18.5" fill="#4D55A6"/>
<circle cx="233.345" cy="132.5" r="16.5" fill="#F3BB1C"/>
<defs>
<filter id="filter0_d_2320_17250" x="0.844727" y="0" width="873.31" height="292.506" filterUnits="userSpaceOnUse" color-interpolation-filters="sRGB">
<feFlood flood-opacity="0" result="BackgroundImageFix"/>
<feColorMatrix in="SourceAlpha" type="matrix" values="0 0 0 0 0 0 0 0 0 0 0 0 0 0 0 0 0 0 127 0" result="hardAlpha"/>
<feOffset dx="4" dy="8"/>
<feGaussianBlur stdDeviation="14"/>
<feComposite in2="hardAlpha" operator="out"/>
<feColorMatrix type="matrix" values="0 0 0 0 0 0 0 0 0 0 0 0 0 0 0 0 0 0 0.29 0"/>
<feBlend mode="normal" in2="BackgroundImageFix" result="effect1_dropShadow_2320_17250"/>
<feBlend mode="normal" in="SourceGraphic" in2="effect1_dropShadow_2320_17250" result="shape"/>
</filter>
<radialGradient id="paint0_radial_2320_17250" cx="0" cy="0" r="1" gradientUnits="userSpaceOnUse" gradientTransform="translate(639.22 192.443) rotate(-150.668) scale(427.591 396.62)">
<stop stop-color="#EBEDFF"/>
<stop offset="0.786458" stop-color="#FFF2E3"/>
<stop offset="1" stop-color="#FEFDF8"/>
</radialGradient>
</defs>
</svg>
