<svg width="873" height="259" viewBox="0 0 873 259" fill="none" xmlns="http://www.w3.org/2000/svg">
<g filter="url(#filter0_d_2366_17456)">
<path d="M24 36.5518L820.835 20.3257C829.67 20.1458 836.977 27.1619 837.157 35.9966L840.631 206.588L43.7962 222.814C34.9615 222.994 27.6537 215.978 27.4738 207.143L24 36.5518Z" fill="url(#paint0_radial_2366_17456)"/>
<path d="M140.927 124.638C141.262 141.115 152.556 153.447 170.472 153.083C186.229 152.762 196.451 143.912 197.845 129.881L185.048 130.141C183.92 137.606 178.082 141.725 170.404 141.882C160.566 142.082 153.962 136.055 153.724 124.378C153.488 112.78 159.841 106.489 169.679 106.289C177.358 106.133 183.356 109.931 184.787 117.344L197.585 117.083C195.622 103.2 185.048 94.7738 169.291 95.0946C151.375 95.4595 140.593 108.242 140.927 124.638ZM201.84 131.4C202.128 145.557 212.346 152.23 225.063 151.971C237.701 151.714 247.638 144.63 247.35 130.473C247.064 116.396 236.846 109.722 224.208 109.98C211.491 110.239 201.553 117.322 201.84 131.4ZM214.637 131.139C214.5 124.42 218.357 121.301 224.436 121.177C230.435 121.055 234.416 124.015 234.553 130.733C234.691 137.532 230.834 140.651 224.835 140.773C218.756 140.897 214.775 137.938 214.637 131.139ZM306.602 108.302C298.764 108.461 295.264 113.414 293.811 120.645L291.491 120.692C290.148 113.678 286.846 108.704 279.248 108.859C271.41 109.018 267.83 113.972 266.377 121.203L263.177 121.269L265.43 114.021L265.347 109.942L252.55 110.203L253.372 150.594L266.17 150.334L265.881 136.177C265.683 126.419 267.159 120.307 274.117 120.166C278.836 120.07 280.16 122.203 280.316 129.881L280.727 150.037L293.524 149.777L293.236 135.62C293.037 125.862 294.513 119.75 301.471 119.609C306.19 119.513 307.514 121.646 307.671 129.324L308.081 149.48L320.878 149.22L320.45 128.184C320.228 117.306 316.92 108.092 306.602 108.302ZM341.316 104.394C346.035 104.298 348.949 101.998 348.864 97.8393C348.781 93.7601 345.775 91.5009 341.056 91.597C336.337 91.6931 333.584 94.0696 333.667 98.1487C333.752 102.308 336.597 104.49 341.316 104.394ZM325.664 149.122L360.856 148.406L360.628 137.208L349.191 137.441L348.717 114.166C348.625 109.687 346.096 107.258 341.621 107.589L326.441 108.698L326.669 119.896L336.497 119.216L336.873 137.692L325.436 137.925L325.664 149.122ZM389.397 117.818C395.556 117.693 397.772 120.448 397.922 127.807L398.326 147.643L411.123 147.382L410.679 125.547C410.425 113.069 404.046 106.318 393.728 106.528C385.09 106.704 380.167 112.485 378.713 119.716L375.514 119.781L377.767 112.534L377.668 107.655L364.87 107.916L365.693 148.307L378.49 148.047L378.186 133.09C377.954 121.732 382.438 117.96 389.397 117.818ZM463.226 105.913C459.626 105.986 455.475 106.471 453.139 109.639C448.837 106.606 443.213 105.52 437.055 105.645C424.337 105.904 414.364 111.229 414.58 121.866C414.851 135.144 430.491 136.986 445.181 131.405L445.246 134.605C437.923 136.514 429.625 137.643 420.446 138.79L421.952 145.961C434.307 143.629 448.731 140.695 448.851 146.614C448.941 151.013 443.99 151.514 417.835 152.046L418.063 163.244C448.057 162.633 462.027 160.989 461.784 149.071C461.61 140.513 453.003 138.288 443.816 139.035C454.857 135.049 461.878 130.105 461.723 122.507C461.679 120.347 461.002 118.521 460.509 117.89C461.614 117.148 463.054 117.119 464.253 117.094L466.973 117.039L466.745 105.841L463.226 105.913ZM438.301 127.545C430.622 127.701 427.464 125.845 427.394 122.406C427.325 119.046 430.404 116.983 438.083 116.827C445.761 116.67 448.841 118.608 448.909 121.967C448.979 125.407 445.979 127.388 438.301 127.545ZM544.941 129.134C544.702 117.376 528.694 113.221 518.225 109.914C509.125 107.058 507.745 106.126 507.693 103.567C507.635 100.687 511.208 99.3344 516.967 99.2172C523.925 99.0755 529.243 100.888 529.383 107.766L542.181 107.506C541.953 96.3079 534.015 87.6677 516.739 88.0195C502.182 88.3159 494.691 93.7496 494.886 103.348C495.111 114.385 504.854 117.388 516.853 121.144C525.148 123.776 532.064 125.475 532.147 129.554C532.209 132.594 529.529 134.569 521.291 134.737C510.093 134.965 505.718 132.333 505.543 123.695L492.745 123.955C493.035 138.192 500.803 146.356 521.119 145.942C538.475 145.589 545.139 138.812 544.941 129.134ZM548.877 124.333C549.165 138.49 559.383 145.163 572.101 144.904C584.738 144.647 594.676 137.563 594.388 123.406C594.101 109.329 583.883 102.656 571.246 102.913C558.528 103.172 548.59 110.256 548.877 124.333ZM561.674 124.072C561.538 117.354 565.395 114.234 571.474 114.111C577.472 113.988 581.453 116.948 581.59 123.667C581.729 130.465 577.871 133.584 571.873 133.707C565.794 133.83 561.813 130.871 561.674 124.072ZM598.398 123.324C598.686 137.481 608.904 144.155 621.622 143.896C634.259 143.638 644.197 136.555 643.909 122.398C643.622 108.32 633.404 101.647 620.767 101.904C608.049 102.163 598.111 109.247 598.398 123.324ZM611.195 123.064C611.059 116.345 614.916 113.226 620.995 113.102C626.993 112.98 630.974 115.94 631.111 122.658C631.25 129.457 627.392 132.576 621.394 132.698C615.315 132.822 611.334 129.862 611.195 123.064ZM673.635 112.03C679.794 111.905 682.01 114.66 682.16 122.019L682.564 141.855L695.361 141.594L694.917 119.759C694.663 107.281 688.284 100.53 677.966 100.74C669.328 100.916 664.404 106.697 662.951 113.928L659.752 113.993L662.005 106.746L661.906 101.867L649.108 102.128L649.931 142.519L662.728 142.259L662.424 127.302C662.192 115.944 666.676 112.172 673.635 112.03ZM706.189 84.9618L709.315 120.586L717.314 120.423L718.987 84.7013L706.189 84.9618ZM713.673 142.021C718.951 141.914 722.473 138.001 722.37 132.962C722.271 128.083 718.593 124.317 713.314 124.425C707.875 124.536 704.674 128.442 704.774 133.321C704.876 138.36 708.234 142.132 713.673 142.021Z" fill="#222751"/>
<path d="M24.5101 37.0415L820.845 20.8256C829.404 20.6513 836.483 27.4481 836.657 36.0068L840.121 206.099L43.786 222.314C35.2274 222.489 28.148 215.692 27.9737 207.133L24.5101 37.0415Z" stroke="#A7A9B9"/>
</g>
<defs>
<filter id="filter0_d_2366_17456" x="0" y="0" width="872.631" height="259.14" filterUnits="userSpaceOnUse" color-interpolation-filters="sRGB">
<feFlood flood-opacity="0" result="BackgroundImageFix"/>
<feColorMatrix in="SourceAlpha" type="matrix" values="0 0 0 0 0 0 0 0 0 0 0 0 0 0 0 0 0 0 127 0" result="hardAlpha"/>
<feOffset dx="4" dy="8"/>
<feGaussianBlur stdDeviation="14"/>
<feComposite in2="hardAlpha" operator="out"/>
<feColorMatrix type="matrix" values="0 0 0 0 0 0 0 0 0 0 0 0 0 0 0 0 0 0 0.29 0"/>
<feBlend mode="normal" in2="BackgroundImageFix" result="effect1_dropShadow_2366_17456"/>
<feBlend mode="normal" in="SourceGraphic" in2="effect1_dropShadow_2366_17456" result="shape"/>
</filter>
<radialGradient id="paint0_radial_2366_17456" cx="0" cy="0" r="1" gradientUnits="userSpaceOnUse" gradientTransform="translate(637.855 166.908) rotate(-154.617) scale(411.862 349.303)">
<stop stop-color="#EBEDFF"/>
<stop offset="0.786458" stop-color="#FFF2E3"/>
<stop offset="1" stop-color="#FEFDF8"/>
</radialGradient>
</defs>
</svg>
