<svg width="59" height="55" viewBox="0 0 59 55" fill="none" xmlns="http://www.w3.org/2000/svg">
<path d="M34.4167 25.2085V18.3335C45.6267 17.0043 54.0833 11.2293 54.0833 4.5835H4.91666C4.91666 11.2293 13.3733 17.0043 24.5833 18.3335V25.2085C15.5367 26.8814 4.91666 33.4814 4.91666 50.4168H19.6667V45.8335H10.1529C12.4392 30.1814 26.5008 29.3335 29.5 29.3335C32.4992 29.3335 46.5608 30.1814 48.8471 45.8335H39.3333V50.4168H54.0833C54.0833 33.4814 43.4633 26.8814 34.4167 25.2085ZM46.3887 9.16683C43.0208 11.8939 36.875 14.0252 29.5 14.0252C22.125 14.0252 15.9792 11.8939 12.6112 9.16683H46.3887ZM29.5 50.4168C26.7958 50.4168 24.5833 48.3543 24.5833 45.8335C24.5833 44.5731 25.1242 43.4272 26.0337 42.6022C28.0004 40.7689 39.3333 36.6668 39.3333 36.6668C39.3333 36.6668 34.9329 47.2314 32.9662 49.0647C32.0812 49.9127 30.8521 50.4168 29.5 50.4168Z" fill="#A1A1AA"/>
</svg>
