<svg width="51" height="51" viewBox="0 0 51 51" fill="none" xmlns="http://www.w3.org/2000/svg">
<path d="M35.326 29.5802L41.0996 35.3517L25.4745 50.9769L9.8515 35.3539L15.6251 29.5802L25.4766 39.4827L35.326 29.5802ZM45.1796 19.7287L51 25.5002L45.2306 31.2717L39.457 25.5002L45.1796 19.7287ZM25.4766 19.7287L31.2481 25.4492L25.4745 31.2229L19.703 25.5002L25.4745 19.7309L25.4766 19.7287ZM5.7715 19.7287L11.4963 25.5002L5.77575 31.2207L0 25.5002L5.7715 19.7287ZM25.4788 0.0214844L41.1017 15.5977L35.3281 21.3671L25.4766 11.5156L15.6273 21.4181L9.85363 15.6466L25.4766 0.0236094L25.4788 0.0214844Z" fill="#A1A1AA"/>
</svg>
