<svg width="158" height="158" viewBox="0 0 158 158" fill="none" xmlns="http://www.w3.org/2000/svg">
<path d="M36.7022 125.522L78.2 70.1917C78.6 69.6583 79.4 69.6583 79.8 70.1917L121.298 125.522C121.904 126.331 121.065 127.426 120.126 127.051L80.4856 111.194C79.5319 110.813 78.4681 110.813 77.5144 111.194L37.8736 127.051C36.935 127.426 36.0957 126.331 36.7022 125.522Z" fill="url(#paint0_linear_1558_14412)"/>
<g filter="url(#filter0_bi_1558_14412)">
<path d="M31.1245 101.438L78.1679 30.8731C78.5638 30.2793 79.4362 30.2793 79.8321 30.8731L126.876 101.438C127.39 102.211 126.666 103.207 125.773 102.956L81.166 90.41C79.7495 90.0116 78.2505 90.0116 76.834 90.41L32.2273 102.956C31.3336 103.207 30.6095 102.211 31.1245 101.438Z" fill="#DFB3EE" fill-opacity="0.4"/>
</g>
<circle cx="79" cy="49.375" r="4.9375" fill="white"/>
<defs>
<filter id="filter0_bi_1558_14412" x="26.9526" y="26.4277" width="104.095" height="80.5674" filterUnits="userSpaceOnUse" color-interpolation-filters="sRGB">
<feFlood flood-opacity="0" result="BackgroundImageFix"/>
<feGaussianBlur in="BackgroundImage" stdDeviation="2"/>
<feComposite in2="SourceAlpha" operator="in" result="effect1_backgroundBlur_1558_14412"/>
<feBlend mode="normal" in="SourceGraphic" in2="effect1_backgroundBlur_1558_14412" result="shape"/>
<feColorMatrix in="SourceAlpha" type="matrix" values="0 0 0 0 0 0 0 0 0 0 0 0 0 0 0 0 0 0 127 0" result="hardAlpha"/>
<feOffset dy="0.2"/>
<feGaussianBlur stdDeviation="1"/>
<feComposite in2="hardAlpha" operator="arithmetic" k2="-1" k3="1"/>
<feColorMatrix type="matrix" values="0 0 0 0 1 0 0 0 0 1 0 0 0 0 1 0 0 0 0.8 0"/>
<feBlend mode="normal" in2="shape" result="effect2_innerShadow_1558_14412"/>
</filter>
<linearGradient id="paint0_linear_1558_14412" x1="34.5625" y1="69.125" x2="89.2548" y2="151.163" gradientUnits="userSpaceOnUse">
<stop stop-color="#9B51E0"/>
<stop offset="1" stop-color="#DFB3EE"/>
</linearGradient>
</defs>
</svg>
