<svg width="23" height="15" viewBox="0 0 23 15" fill="none" xmlns="http://www.w3.org/2000/svg">
<path d="M14.5856 8.53148C14.3269 8.20803 13.8549 8.15559 13.5315 8.41435L12.25 9.43951V6C12.25 5.58579 11.9142 5.25 11.5 5.25C11.0858 5.25 10.75 5.58579 10.75 6V9.43955L9.46849 8.41435C9.14505 8.15559 8.67308 8.20803 8.41432 8.53148C8.15556 8.85493 8.208 9.32689 8.53145 9.58565L11.0287 11.5835C11.1575 11.6876 11.3215 11.75 11.5 11.75C11.6801 11.75 11.8453 11.6866 11.9746 11.5808L14.4685 9.58565C14.7919 9.32689 14.8444 8.85492 14.5856 8.53148Z" fill="#FAFAFA"/>
<path fill-rule="evenodd" clip-rule="evenodd" d="M7.96038 3.28387C8.90301 1.82734 10.5427 0.861755 12.4091 0.861755C15.2228 0.861755 17.524 3.05626 17.6944 5.82707C17.7506 5.82494 17.807 5.82386 17.8636 5.82386C20.2862 5.82386 22.25 7.7877 22.25 10.2102C22.25 12.6327 20.2862 14.5966 17.8636 14.5966L6.5 14.5966C3.32436 14.5966 0.75 12.0222 0.75 8.84659C0.75 5.67095 3.32436 3.09659 6.5 3.09659C7.00391 3.09659 7.49348 3.16158 7.96038 3.28387ZM12.4091 2.36176C10.904 2.36176 9.6021 3.23773 8.98806 4.51102C8.81801 4.86363 8.40536 5.02614 8.04054 4.88418C7.5639 4.69871 7.04477 4.59659 6.5 4.59659C4.15279 4.59659 2.25 6.49937 2.25 8.84659C2.25 11.1938 4.15279 13.0966 6.5 13.0966L17.8627 13.0966C19.4568 13.0966 20.75 11.8043 20.75 10.2102C20.75 8.61613 19.4577 7.32386 17.8636 7.32386C17.6042 7.32386 17.3539 7.35789 17.1164 7.42133C16.8762 7.48549 16.6198 7.42643 16.4319 7.26366C16.2439 7.10089 16.1489 6.85556 16.1781 6.60865C16.1955 6.46089 16.2045 6.31026 16.2045 6.15721C16.2045 4.06104 14.5053 2.36176 12.4091 2.36176Z" fill="#FAFAFA"/>
</svg>
