<svg width="52" height="52" viewBox="0 0 52 52" fill="none" xmlns="http://www.w3.org/2000/svg">
<circle cx="26" cy="26" r="25.5" stroke="white"/>
<path d="M34.8889 16H17.1111C16.8164 16 16.5338 16.1171 16.3254 16.3254C16.1171 16.5338 16 16.8164 16 17.1111V34.8889C16 35.1836 16.1171 35.4662 16.3254 35.6746C16.5338 35.8829 16.8164 36 17.1111 36H26.6833V28.2667H24.0856V25.2389H26.6833V23.0167C26.6833 20.4333 28.2611 19.0256 30.5722 19.0256C31.3489 19.0233 32.1267 19.0633 32.9 19.1444V21.8333H31.3056C30.0522 21.8333 29.8078 22.4311 29.8078 23.3056V25.2333H32.8044L32.4156 28.2611H29.8067V36H34.8889C35.1836 36 35.4662 35.8829 35.6746 35.6746C35.8829 35.4662 36 35.1836 36 34.8889V17.1111C36 16.8164 35.8829 16.5338 35.6746 16.3254C35.4662 16.1171 35.1836 16 34.8889 16Z" fill="white"/>
</svg>
