<svg width="50" height="50" viewBox="0 0 50 50" fill="none" xmlns="http://www.w3.org/2000/svg">
<g clip-path="url(#clip0_1960_16037)">
<path d="M47.4545 28.5473C47.6404 27.3735 47.7337 26.187 47.7338 24.9986C47.7338 12.4428 37.5558 2.26508 24.9992 2.26508C23.7943 2.26508 22.6074 2.36416 21.4515 2.54492C19.3576 1.2497 16.8863 0.5 14.2381 0.5C6.65066 0.5 0.5 6.64999 0.5 14.2378C0.5 16.8854 1.25026 19.3545 2.54496 21.4527C2.36586 22.6113 2.26727 23.7911 2.26727 24.9992C2.26727 37.5556 12.4452 47.7306 24.9986 47.7306C26.2046 47.7306 27.3915 47.6375 28.5474 47.4551C30.6435 48.7481 33.1126 49.5 35.7608 49.5C43.3499 49.5 49.5 43.3484 49.5 35.7605C49.5005 33.1124 48.7508 30.6434 47.4545 28.5473ZM35.7929 35.3381C34.8309 36.7226 33.4186 37.8044 31.5723 38.5824C29.7223 39.362 27.5363 39.7502 25.0117 39.7502C21.9856 39.7502 19.4801 39.221 17.5026 38.1517C16.1007 37.3863 14.9606 36.3589 14.084 35.0778C13.2058 33.7962 12.7605 32.5413 12.7605 31.3174C12.7605 30.5955 13.036 29.9672 13.5717 29.4554C14.1134 28.9398 14.8109 28.6812 15.6341 28.6812C16.3087 28.6812 16.888 28.8843 17.3595 29.2866C17.8277 29.689 18.2202 30.2737 18.5415 31.0457C18.9264 31.9402 19.3445 32.6878 19.7893 33.2839C20.2314 33.873 20.8537 34.3652 21.6595 34.7501C22.4566 35.1361 23.5172 35.3288 24.8446 35.3288C26.6608 35.3288 28.1292 34.9363 29.2524 34.161C30.3816 33.3792 30.9244 32.4275 30.9244 31.2771C30.9244 30.3603 30.6315 29.6313 30.0321 29.0634C29.4272 28.4885 28.6454 28.0502 27.6757 27.7448C26.7022 27.4361 25.395 27.1083 23.7567 26.7632C21.5572 26.2835 19.7175 25.7244 18.2279 25.083C16.7361 24.4384 15.5481 23.5581 14.6677 22.4458C13.7851 21.3226 13.3452 19.9266 13.3452 18.2732C13.3452 16.6965 13.8096 15.2864 14.7396 14.0592C15.6689 12.8288 17.0137 11.8869 18.7669 11.2309C20.514 10.5748 22.5709 10.2471 24.9273 10.2471C26.8117 10.2471 28.4417 10.4648 29.8214 10.8988C31.1978 11.336 32.3444 11.9125 33.2612 12.6361C34.1731 13.358 34.8434 14.1196 35.2681 14.9189C35.6922 15.7203 35.9062 16.5032 35.9062 17.2671C35.9062 17.9776 35.6307 18.6216 35.0944 19.1862C34.5576 19.7519 33.8715 20.0399 33.0701 20.0372C32.3476 20.0372 31.7809 19.8706 31.3878 19.5178C31.005 19.1764 30.6032 18.6331 30.1682 17.8757C29.6188 16.819 28.9606 15.9958 28.1946 15.4067C27.4492 14.8291 26.2193 14.528 24.5081 14.5318C22.9248 14.5318 21.6579 14.8552 20.7018 15.4878C19.7398 16.1308 19.2797 16.8767 19.2776 17.7505C19.2792 18.2982 19.4365 18.7599 19.7534 19.1546C20.0751 19.5532 20.5227 19.8983 21.0982 20.1896C21.6737 20.4852 22.259 20.7139 22.8475 20.8783C23.4426 21.0471 24.4302 21.291 25.8028 21.6139C27.5243 21.9852 29.0863 22.3995 30.4894 22.8513C31.8897 23.3054 33.0848 23.8532 34.0725 24.5054C35.0677 25.156 35.8457 25.9851 36.4011 26.9869C36.9596 27.9903 37.2384 29.2159 37.2384 30.6575C37.2406 32.3943 36.7566 33.9557 35.7929 35.3381Z" fill="#A1A1AA"/>
</g>
<defs>
<clipPath id="clip0_1960_16037">
<rect width="49" height="49" fill="white" transform="translate(0.5 0.5)"/>
</clipPath>
</defs>
</svg>
