<svg width="50" height="50" viewBox="0 0 50 50" fill="none" xmlns="http://www.w3.org/2000/svg">
<g clip-path="url(#clip0_1960_16042)">
<path d="M9.95269 0.5H40.0473C45.2841 0.5 49.5 4.71591 49.5 9.95269V40.0473C49.5 45.2841 45.2841 49.5 40.0473 49.5H9.95269C4.71591 49.5 0.5 45.2841 0.5 40.0473V9.95269C0.5 4.71591 4.71591 0.5 9.95269 0.5ZM24.9802 17.961C22.3836 17.961 19.9844 18.7868 18.0138 20.1795V10.3898C18.0138 8.98724 16.8769 7.85 15.474 7.85C14.071 7.85 12.9341 8.98724 12.9341 10.3898V29.0977C12.9092 29.4144 12.9372 31.249 13.0211 31.7698C13.8555 37.6357 18.8846 42.15 24.9802 42.15C31.6602 42.15 37.0747 36.7355 37.0747 30.0555C37.0747 23.3756 31.6602 17.961 24.9802 17.961ZM24.9802 37.0219C21.1327 37.0219 18.0138 33.903 18.0138 30.0555C18.0138 26.2079 21.1326 23.089 24.9802 23.089C28.8278 23.089 31.9466 26.2079 31.9466 30.0555C31.9466 33.903 28.8277 37.0219 24.9802 37.0219Z" fill="#A1A1AA"/>
</g>
<defs>
<clipPath id="clip0_1960_16042">
<rect width="49" height="49" fill="white" transform="translate(0.5 0.5)"/>
</clipPath>
</defs>
</svg>
