<svg width="48" height="48" viewBox="0 0 48 48" fill="none" xmlns="http://www.w3.org/2000/svg">
<g clip-path="url(#clip0_1960_16046)">
<path d="M17.4794 1.78255C15.9943 1.45115 14.7786 1.58369 13.4962 2.24653C12.0779 3.10818 11.2675 4.43377 10.9298 6.28891C10.5921 8.21031 10.9298 10.0662 11.9428 11.9213L12.4156 12.5834L10.7947 12.0532C8.76927 11.5892 6.87829 11.8543 4.98798 12.8485C3.03015 13.8427 1.81448 15.2339 1.00407 17.156C0.261181 19.0118 0.329378 20.8007 1.27422 22.457C1.67943 23.1861 2.28726 23.7819 2.82685 24.1796C3.63726 24.975 4.6503 25.4389 5.8653 25.6371L6.33803 25.7696L5.32499 26.6313C4.37948 27.4266 3.83989 28.4201 3.50221 29.4143C3.16453 30.6074 3.29958 31.7997 3.97494 32.9264C4.31262 33.456 4.64963 33.92 5.18989 34.2513C5.7302 34.7153 6.40556 35.0467 7.2153 35.1123C8.70108 35.4437 10.2538 35.4437 11.9414 34.9128L10.7258 36.9005L10.3881 37.7628C9.7134 39.883 9.91535 41.7388 10.9284 43.6596C11.4011 44.3887 11.9414 45.0522 12.4817 45.6473C13.2922 46.3764 14.3045 46.8403 15.5202 47.1718C17.5456 47.7013 19.5717 47.6357 21.5295 46.6422C23.4205 45.6473 24.6355 44.0573 25.2433 42.069L25.3109 41.6713C26.5933 43.0638 27.809 43.991 29.1597 44.3224C30.5098 44.7201 31.8605 44.6538 33.0761 43.8585C34.2242 43.1957 35.0339 42.069 35.4392 40.6778C35.7769 39.2196 35.7769 37.7621 35.4392 36.1059C36.1139 36.5698 36.7892 36.8999 37.5997 37.0994C39.7601 37.7622 41.6504 37.6952 43.5415 36.7017C45.3649 35.7082 46.5799 34.1168 47.1877 32.0628C47.728 30.0751 47.5929 28.1543 46.5799 26.2985L46.2422 25.7683C45.7019 24.973 45.1623 24.1776 44.3519 23.648C43.6772 23.1841 42.8668 22.8527 42.1239 22.5213C44.2175 21.5271 45.7026 20.1359 46.378 18.3464C46.8507 16.8883 46.7156 15.6959 46.0403 14.5029V14.3703C45.2305 13.0447 44.15 12.1831 42.4622 11.7199C41.4492 11.521 40.3011 11.521 39.2887 11.5873L37.0607 12.0512L37.8036 10.395C38.479 8.2747 38.2764 6.22005 37.1283 4.29865L36.9256 3.96725C35.9126 2.31026 34.4275 1.31678 32.4021 0.786523C30.3092 0.256316 28.3513 0.455126 26.4603 1.44932C24.57 2.44285 23.2193 3.96725 22.6121 5.95563V6.08817L22.5446 6.55215L22.2744 6.08817L21.5991 4.89512C20.5178 3.24086 19.1671 2.24667 17.4794 1.78269L17.4794 1.78255ZM34.6977 5.75861C35.0353 6.42074 35.2379 7.21608 35.2379 8.07773L35.0353 9.5352C34.7651 10.2643 34.4275 10.9271 34.0222 11.5229L27.9454 18.813C27.3376 18.349 26.6622 18.0176 25.9868 17.6862L25.3121 10.1987L25.2446 7.54822L25.3121 6.88609C25.6498 5.56121 26.5946 4.56702 27.8103 3.90417C29.0252 3.24204 30.376 3.10884 31.6585 3.57278C33.0767 3.90352 34.0898 4.63258 34.6976 5.75865L34.6977 5.75861ZM13.7657 7.08419C13.8332 5.89115 14.306 5.09647 15.1157 4.63253C15.5209 4.30114 16.1287 4.30114 16.6683 4.56626C17.884 4.89766 18.8963 5.75931 19.7068 7.41559C20.0445 8.07838 20.3821 8.74047 20.5172 9.53586L21.8672 17.3555L20.8542 17.6869L14.8449 11.2591L14.5072 10.597C13.9683 9.40327 13.6306 8.27719 13.7657 7.08415L13.7657 7.08419ZM10.1194 14.8368L11.9429 15.5659L17.8847 19.8071C17.3444 20.4692 17.0074 21.132 16.8048 21.7948L7.08164 22.9879L6.40628 22.8553C5.19061 22.6565 4.38087 22.1263 3.84061 21.1327C3.3003 20.1385 3.3003 19.145 3.70556 18.1508C4.17829 16.8915 5.05561 15.8973 6.33875 15.3678C7.5537 14.7043 8.76865 14.5054 10.1194 14.8368H10.1194ZM16.534 25.6377L17.0067 26.9633L17.2093 27.4272C16.1963 28.2881 15.4534 29.0835 14.6436 29.8126L12.6176 31.4696L12.0773 31.801C10.7941 32.3968 9.71416 32.5964 8.56607 32.4631C7.55303 32.3968 6.74262 32.0654 6.40494 31.4696L6.20231 30.7405L6.33736 30.1447C6.67504 29.1498 7.55303 28.157 9.10633 27.4273C9.91607 27.0959 10.5914 26.7645 11.1317 26.6319L16.5339 25.6377L16.534 25.6377ZM37.6003 14.9031C38.816 14.3729 39.9634 14.2403 41.179 14.3729C42.3271 14.5054 43.1376 15.035 43.5421 15.8304L43.8122 16.6913L43.6772 17.3541C43.2045 18.5472 42.1914 19.4744 40.5037 20.2034C39.829 20.5348 39.0861 20.6674 38.2757 20.7993L29.9709 21.7935L29.8358 21.3295L29.7007 21.1314L29.9709 20.8L36.7906 15.2339L37.6004 14.9031H37.6003ZM20.3828 21.1983C21.1926 20.4692 22.2731 20.006 23.5563 20.006C24.772 20.006 25.9194 20.4699 26.6623 21.1983C27.6078 22.1262 28.013 23.1204 28.013 24.3127C28.013 25.5051 27.6078 26.6319 26.6623 27.4272C25.7843 28.2882 24.772 28.7521 23.5563 28.7521C22.2731 28.7521 21.1926 28.2882 20.3828 27.4272C19.5048 26.6319 19.0328 25.5051 19.0328 24.3127C19.0328 23.1204 19.5048 22.1262 20.3828 21.1983ZM21.9354 30.8068C22.0705 33.0603 22.2731 35.4456 22.6108 38.0299V40.6811L22.5433 41.3439C22.0705 42.5355 21.2601 43.5297 20.0451 44.0599C18.8302 44.7227 17.547 44.8553 16.3313 44.5239C14.9813 44.1939 13.9682 43.3985 13.428 42.338C13.0903 41.6753 12.8201 40.8799 12.8201 40.0845L13.1578 38.5615C13.2929 37.8987 13.6306 37.2352 14.1709 36.7057L19.8425 30.0784C20.5179 30.4091 21.1926 30.7406 21.9354 30.8068V30.8068ZM27.135 29.9452L29.9709 32.7945L31.7261 34.9148L32.0638 35.5776C32.6716 36.7043 33.0093 37.7648 32.8742 39.0241C32.7391 40.2171 32.3339 41.0781 31.5242 41.4095C31.0514 41.7409 30.5111 41.7409 29.9715 41.6739C28.6883 41.3439 27.6753 40.349 26.9331 38.7583L26.1227 36.5724L25.1096 30.8068L26.2577 30.4091L27.135 29.9452H27.135ZM30.1735 25.8365L37.8037 25.1744L40.5044 25.1081L41.1798 25.1744C42.1928 25.5058 43.1384 26.1023 43.678 27.0958C44.3526 27.8249 44.6903 28.8184 44.6903 29.9451L44.4884 31.27C44.1507 32.5963 43.3403 33.5898 42.1922 34.1193C40.9765 34.7821 39.7616 34.9147 38.4108 34.4507C37.6004 34.2526 37.0608 33.9212 36.5874 33.3916L29.4975 27.626L29.9702 26.6324L30.1735 25.8364L30.1735 25.8365Z" fill="#A1A1AA"/>
</g>
<defs>
<clipPath id="clip0_1960_16046">
<rect width="47" height="47" fill="white" transform="translate(0.5 0.5)"/>
</clipPath>
</defs>
</svg>
