<svg width="48" height="50" viewBox="0 0 48 50" fill="none" xmlns="http://www.w3.org/2000/svg">
<g clip-path="url(#clip0_1960_16038)">
<path d="M27.291 0.5C26.2164 0.5 25.2995 0.892539 24.5398 1.6782C23.7803 2.46402 23.4015 3.4108 23.4015 4.51795C23.4015 5.58938 23.7802 6.51705 24.5398 7.30267C25.2995 8.08848 26.2164 8.48225 27.291 8.48225C28.3286 8.48225 29.2269 8.08848 29.9866 7.30267C30.7463 6.51705 31.1264 5.58938 31.1264 4.51795C31.1264 3.41075 30.7463 2.46402 29.9866 1.6782C29.2271 0.892588 28.3286 0.5 27.291 0.5ZM35.6238 8.1609C35.7348 8.76806 35.7905 9.57073 35.7905 10.5708V12.6593H33.068V17.8553C33.846 17.7481 34.4754 17.6962 34.9572 17.6962L35.7907 17.7483V17.8554H35.7352V27.4442C35.7352 30.4444 36.1256 32.6411 36.9036 34.034C37.9412 35.8909 39.8122 36.8187 42.5171 36.8187C44.4439 36.8187 46.0927 36.4623 47.4638 35.7477V30.3909C46.5371 30.9982 45.4993 31.3012 44.3507 31.3012C42.7204 31.3012 41.906 30.1046 41.906 27.7118V17.7481H44.2952C44.74 17.7481 45.2127 17.766 45.713 17.8016C46.2132 17.8373 46.5549 17.855 46.7402 17.855V12.659H41.9062V10.4634C41.9062 9.60635 41.9619 8.83931 42.0729 8.16061H35.6245L35.6239 8.16081L35.6238 8.1609ZM10.1713 12.3916C7.65161 12.3916 5.48464 13.1958 3.66883 14.8028C1.7793 16.517 0.833573 18.6591 0.833573 21.2305C0.833573 22.9446 1.35184 24.5519 2.38929 26.0516C3.3156 27.4443 4.37231 28.3379 5.55801 28.7308V28.8379C4.37231 29.3374 3.78002 30.5882 3.78002 32.588C3.78002 34.1238 4.40942 35.2654 5.6692 36.0153V36.1224C2.22344 37.2294 0.500366 39.2827 0.500366 42.2823C0.500366 44.8896 1.64931 46.8012 3.94688 48.0153C5.76218 48.9797 8.07775 49.4613 10.8937 49.4613C17.7485 49.4613 21.1761 46.6934 21.1761 41.1578C21.1761 37.6938 18.5264 35.569 13.2275 34.7836C12.0049 34.6051 11.0793 34.1771 10.4494 33.4984C9.96764 33.0343 9.72696 32.5688 9.72696 32.1046C9.72696 30.7833 10.4677 30.0162 11.9494 29.8018C14.2096 29.4808 16.0536 28.4717 17.4803 26.7754C18.9068 25.0789 19.6202 23.0877 19.6202 20.8021C19.6202 20.0878 19.4721 19.3206 19.1758 18.4994C20.1394 18.2849 20.8794 18.0887 21.3983 17.9103V12.3914C19.0636 13.2485 17.0076 13.6781 15.2292 13.6781C13.6728 12.821 11.9871 12.3914 10.1714 12.3914V12.3916H10.1713ZM24.1239 12.6593C24.1979 13.302 24.235 14.4634 24.235 16.1416V32.8022C24.235 34.5166 24.1979 35.7298 24.1239 36.4438H30.404C30.3298 35.6225 30.2929 34.3009 30.2929 32.4795V16.0345C30.2929 14.4632 30.3298 13.3378 30.404 12.6593H24.1239V12.6593ZM10.3935 17.3198C11.5052 17.3198 12.3751 17.7318 13.005 18.5531C13.5237 19.3033 13.7829 20.195 13.7829 21.2307C13.7829 23.7305 12.6538 24.9807 10.3935 24.9807C8.0594 24.9807 6.89155 23.7484 6.89155 21.2841C6.89155 18.6416 8.0594 17.3198 10.3935 17.3198ZM10.7825 39.123C13.8952 39.123 15.4514 40.0328 15.4514 41.854C15.4514 43.7826 14.0247 44.7473 11.1716 44.7473C7.911 44.7473 6.28055 43.8179 6.28055 41.961C6.28055 40.0682 7.7813 39.1228 10.7827 39.1228L10.7825 39.123V39.123Z" fill="#A1A1AA"/>
</g>
<defs>
<clipPath id="clip0_1960_16038">
<rect width="47" height="49" fill="white" transform="translate(0.5 0.5)"/>
</clipPath>
</defs>
</svg>
