<svg width="158" height="158" viewBox="0 0 158 158" fill="none" xmlns="http://www.w3.org/2000/svg">
<circle cx="79" cy="79" r="39.5" fill="url(#paint0_linear_1558_14512)"/>
<g filter="url(#filter0_bi_1558_14512)">
<path d="M79 30.625C79 30.0727 79.4478 29.6239 80 29.6351C86.1434 29.7596 92.2127 31.0298 97.895 33.3834C103.885 35.8648 109.329 39.5017 113.913 44.0866C118.498 48.6715 122.135 54.1146 124.617 60.105C126.97 65.7873 128.24 71.8566 128.365 78C128.376 78.5522 127.927 79 127.375 79L80 79C79.4477 79 79 78.5523 79 78V30.625Z" fill="#99E6FF" fill-opacity="0.4"/>
</g>
<circle cx="79" cy="79" r="7.40625" fill="white"/>
<defs>
<filter id="filter0_bi_1558_14512" x="75" y="25.6348" width="57.3652" height="57.3652" filterUnits="userSpaceOnUse" color-interpolation-filters="sRGB">
<feFlood flood-opacity="0" result="BackgroundImageFix"/>
<feGaussianBlur in="BackgroundImage" stdDeviation="2"/>
<feComposite in2="SourceAlpha" operator="in" result="effect1_backgroundBlur_1558_14512"/>
<feBlend mode="normal" in="SourceGraphic" in2="effect1_backgroundBlur_1558_14512" result="shape"/>
<feColorMatrix in="SourceAlpha" type="matrix" values="0 0 0 0 0 0 0 0 0 0 0 0 0 0 0 0 0 0 127 0" result="hardAlpha"/>
<feOffset dy="0.2"/>
<feGaussianBlur stdDeviation="1"/>
<feComposite in2="hardAlpha" operator="arithmetic" k2="-1" k3="1"/>
<feColorMatrix type="matrix" values="0 0 0 0 1 0 0 0 0 1 0 0 0 0 1 0 0 0 0.8 0"/>
<feBlend mode="normal" in2="shape" result="effect2_innerShadow_1558_14512"/>
</filter>
<linearGradient id="paint0_linear_1558_14512" x1="39.5" y1="39.5" x2="118.5" y2="118.5" gradientUnits="userSpaceOnUse">
<stop stop-color="#2F80ED"/>
<stop offset="1" stop-color="#56CCF2"/>
</linearGradient>
</defs>
</svg>
