<svg width="41" height="40" viewBox="0 0 41 40" fill="none" xmlns="http://www.w3.org/2000/svg">
<path d="M26.8999 20.7999H21.2999V26.3999H19.6999V20.7999H14.0999V19.1999H19.6999V13.5999H21.2999V19.1999H26.8999V20.7999Z" fill="#3F3F46"/>
<path d="M20.4999 3.33325C11.2999 3.33325 3.83325 10.7999 3.83325 19.9999C3.83325 29.1999 11.2999 36.6666 20.4999 36.6666C29.6999 36.6666 37.1666 29.1999 37.1666 19.9999C37.1666 10.7999 29.6999 3.33325 20.4999 3.33325ZM20.4999 33.3333C13.1333 33.3333 7.16659 27.3666 7.16659 19.9999C7.16659 12.6333 13.1333 6.66659 20.4999 6.66659C27.8666 6.66659 33.8333 12.6333 33.8333 19.9999C33.8333 27.3666 27.8666 33.3333 20.4999 33.3333Z" fill="#3F3F46"/>
</svg>
