<svg width="221" height="220" viewBox="0 0 221 220" fill="none" xmlns="http://www.w3.org/2000/svg">
<path d="M110.5 180.278C149.314 180.278 180.778 148.813 180.778 110C180.778 71.1867 149.314 39.7222 110.5 39.7222C71.6871 39.7222 40.2227 71.1867 40.2227 110C40.2227 148.813 71.6871 180.278 110.5 180.278Z" fill="url(#paint0_radial_2000_16773)"/>
<path d="M155.096 127.233C155.133 131.938 154.229 136.602 152.438 140.953C114.274 150.211 74.7348 141.992 68.4403 140.556C66.733 136.323 65.8714 131.797 65.9042 127.233H66.2403C66.2403 127.233 111.463 138.203 154.515 127.447L155.096 127.233Z" fill="white"/>
<path d="M152.438 140.953C146.968 154 133.035 163.044 110.607 163.044C87.9654 163.044 73.8488 153.786 68.4404 140.556C74.7349 141.992 114.274 150.211 152.438 140.953Z" fill="white"/>
<path d="M110.5 180.278C149.314 180.278 180.778 148.813 180.778 110C180.778 71.1867 149.314 39.7222 110.5 39.7222C71.6871 39.7222 40.2227 71.1867 40.2227 110C40.2227 148.813 71.6871 180.278 110.5 180.278Z" stroke="black" stroke-width="2" stroke-linecap="round" stroke-linejoin="round"/>
<path d="M155.096 127.233C155.133 131.938 154.229 136.602 152.438 140.953C114.274 150.211 74.7348 141.992 68.4403 140.556C66.733 136.323 65.8714 131.797 65.9042 127.233H66.2403C66.2403 127.233 111.463 138.203 154.515 127.447L155.096 127.233Z" stroke="black" stroke-width="2" stroke-linecap="round" stroke-linejoin="round"/>
<path d="M152.438 140.953C146.968 154 133.035 163.044 110.607 163.044C87.9654 163.044 73.8488 153.786 68.4404 140.556C74.7349 141.992 114.274 150.211 152.438 140.953Z" stroke="black" stroke-width="2" stroke-linecap="round" stroke-linejoin="round"/>
<path d="M150.051 99.0122C148.917 96.4591 147.067 94.2898 144.724 92.7672C142.382 91.2447 139.648 90.4343 136.854 90.4343C134.061 90.4343 131.327 91.2447 128.985 92.7672C126.642 94.2898 124.792 96.4591 123.658 99.0122M97.3431 99.0122C96.2089 96.4591 94.3584 94.2898 92.016 92.7672C89.6737 91.2447 86.9399 90.4343 84.1462 90.4343C81.3524 90.4343 78.6187 91.2447 76.2763 92.7672C73.9339 94.2898 72.0834 96.4591 70.9492 99.0122H97.3431Z" stroke="black" stroke-width="2" stroke-miterlimit="10" stroke-linecap="round"/>
<defs>
<radialGradient id="paint0_radial_2000_16773" cx="0" cy="0" r="1" gradientUnits="userSpaceOnUse" gradientTransform="translate(145.868 147.29) rotate(-114.675) scale(152.575 122.773)">
<stop stop-color="#EBEDFF"/>
<stop offset="0.786458" stop-color="#FFF2E3"/>
<stop offset="1" stop-color="#FEFDF8"/>
</radialGradient>
</defs>
</svg>
