<svg width="43" height="50" viewBox="0 0 43 50" fill="none" xmlns="http://www.w3.org/2000/svg">
<path d="M21.5 0C24.3511 0 27.0854 1.31696 29.1014 3.66116C31.1174 6.00537 32.25 9.18479 32.25 12.5C32.25 15.8152 31.1174 18.9946 29.1014 21.3388C27.0854 23.683 24.3511 25 21.5 25C18.6489 25 15.9146 23.683 13.8986 21.3388C11.8826 18.9946 10.75 15.8152 10.75 12.5C10.75 9.18479 11.8826 6.00537 13.8986 3.66116C15.9146 1.31696 18.6489 0 21.5 0ZM21.5 31.25C33.3787 31.25 43 36.8438 43 43.75V50H0V43.75C0 36.8438 9.62125 31.25 21.5 31.25Z" fill="white"/>
</svg>
