<svg width="41" height="37" viewBox="0 0 41 37" fill="none" xmlns="http://www.w3.org/2000/svg">
<path d="M25.7708 2L26.6368 1.5L25.7708 -2.38419e-07L24.9048 1.5L25.7708 2ZM38.9674 24.8573V25.8573H40.6995L39.8335 24.3573L38.9674 24.8573ZM12.5741 24.8573L11.7081 24.3573L10.8421 25.8573H12.5741V24.8573ZM24.9048 2.5L38.1014 25.3573L39.8335 24.3573L26.6368 1.5L24.9048 2.5ZM19.255 15.2857L26.6368 2.5L24.9048 1.5L17.5229 14.2857L19.255 15.2857ZM12.4612 14.1302C14.4433 14.1302 16.2933 14.6821 17.8696 15.6402L18.9084 13.9311C17.028 12.7882 14.8199 12.1302 12.4612 12.1302V14.1302ZM2.03259 24.5588C2.03259 18.7992 6.70165 14.1302 12.4612 14.1302V12.1302C5.59708 12.1302 0.0325928 17.6946 0.0325928 24.5588H2.03259ZM12.4612 34.9874C6.70165 34.9874 2.03259 30.3184 2.03259 24.5588H0.0325928C0.0325928 31.4229 5.59708 36.9874 12.4612 36.9874V34.9874ZM22.8864 24.8316C22.742 30.4648 18.1296 34.9874 12.4612 34.9874V36.9874C19.217 36.9874 24.7136 31.5975 24.8857 24.8829L22.8864 24.8316ZM38.9674 23.8573H23.886V25.8573H38.9674V23.8573ZM23.886 23.8573H12.5741V25.8573H23.886V23.8573ZM13.4401 25.3573L19.255 15.2857L17.5229 14.2857L11.7081 24.3573L13.4401 25.3573ZM17.8696 15.6402C20.8816 17.471 22.8899 20.7808 22.8899 24.5588H24.8899C24.8899 20.0537 22.4923 16.1096 18.9084 13.9311L17.8696 15.6402ZM22.8899 24.5588C22.8899 24.65 22.8887 24.741 22.8864 24.8317L24.8857 24.8829C24.8885 24.7752 24.8899 24.6671 24.8899 24.5588H22.8899Z" fill="#A1A1AA"/>
</svg>
