<svg width="70" height="50" viewBox="0 0 70 50" fill="none" xmlns="http://www.w3.org/2000/svg">
<path d="M35 0C37.7074 0 40.3039 1.27155 42.2184 3.53492C44.1328 5.79829 45.2083 8.86808 45.2083 12.069C45.2083 15.2699 44.1328 18.3396 42.2184 20.603C40.3039 22.8664 37.7074 24.1379 35 24.1379C32.2926 24.1379 29.6961 22.8664 27.7816 20.603C25.8672 18.3396 24.7917 15.2699 24.7917 12.069C24.7917 8.86808 25.8672 5.79829 27.7816 3.53492C29.6961 1.27155 32.2926 0 35 0ZM14.5833 8.62069C16.2167 8.62069 17.7333 9.13793 19.0458 10.069C18.6083 15 19.8333 19.8966 22.3417 23.7241C20.8833 27.0345 17.9667 29.3103 14.5833 29.3103C12.2627 29.3103 10.0371 28.2204 8.39615 26.2804C6.75521 24.3404 5.83333 21.7091 5.83333 18.9655C5.83333 16.2219 6.75521 13.5906 8.39615 11.6506C10.0371 9.71059 12.2627 8.62069 14.5833 8.62069ZM55.4167 8.62069C57.7373 8.62069 59.9629 9.71059 61.6039 11.6506C63.2448 13.5906 64.1667 16.2219 64.1667 18.9655C64.1667 21.7091 63.2448 24.3404 61.6039 26.2804C59.9629 28.2204 57.7373 29.3103 55.4167 29.3103C52.0333 29.3103 49.1167 27.0345 47.6583 23.7241C50.2013 19.8428 51.3817 14.9524 50.9542 10.069C52.2667 9.13793 53.7833 8.62069 55.4167 8.62069ZM16.0417 43.9655C16.0417 36.8276 24.5292 31.0345 35 31.0345C45.4708 31.0345 53.9583 36.8276 53.9583 43.9655V50H16.0417V43.9655ZM0 50V44.8276C0 40.0345 5.5125 36 12.9792 34.8276C11.2583 37.1724 10.2083 40.4138 10.2083 43.9655V50H0ZM70 50H59.7917V43.9655C59.7917 40.4138 58.7417 37.1724 57.0208 34.8276C64.4875 36 70 40.0345 70 44.8276V50Z" fill="white"/>
</svg>
