<svg width="14" height="14" viewBox="0 0 14 14" fill="none" xmlns="http://www.w3.org/2000/svg">
<path d="M7.33158 4.66567C6.13805 4.66567 5.16403 5.71463 5.16403 7C5.16403 8.28537 6.13805 9.33433 7.33158 9.33433C8.52512 9.33433 9.49913 8.28537 9.49913 7C9.49913 5.71463 8.52512 4.66567 7.33158 4.66567ZM13.8326 7C13.8326 6.03335 13.8407 5.07545 13.7903 4.11055C13.7399 2.98979 13.5025 1.99512 12.7415 1.17556C11.9789 0.35426 11.0569 0.100338 10.0162 0.0460516C9.11863 -0.00823506 8.22917 0.000520879 7.33321 0.000520879C6.43562 0.000520879 5.54616 -0.00823506 4.65019 0.0460516C3.60951 0.100338 2.6859 0.356011 1.9249 1.17556C1.16228 1.99687 0.926498 2.98979 0.87609 4.11055C0.825682 5.0772 0.833812 6.0351 0.833812 7C0.833812 7.9649 0.825682 8.92455 0.87609 9.88945C0.926498 11.0102 1.1639 12.0049 1.9249 12.8244C2.68753 13.6457 3.60951 13.8997 4.65019 13.9539C5.54778 14.0082 6.43724 13.9995 7.33321 13.9995C8.2308 13.9995 9.12026 14.0082 10.0162 13.9539C11.0569 13.8997 11.9805 13.644 12.7415 12.8244C13.5041 12.0031 13.7399 11.0102 13.7903 9.88945C13.8424 8.92455 13.8326 7.96665 13.8326 7ZM7.33158 10.5917C5.48599 10.5917 3.99651 8.98759 3.99651 7C3.99651 5.01241 5.48599 3.40832 7.33158 3.40832C9.17717 3.40832 10.6666 5.01241 10.6666 7C10.6666 8.98759 9.17717 10.5917 7.33158 10.5917ZM10.8032 4.10004C10.3723 4.10004 10.0244 3.72529 10.0244 3.26122C10.0244 2.79716 10.3723 2.42241 10.8032 2.42241C11.2341 2.42241 11.5821 2.79716 11.5821 3.26122C11.5823 3.37142 11.5622 3.48056 11.5231 3.58239C11.484 3.68422 11.4266 3.77675 11.3543 3.85467C11.2819 3.93258 11.196 3.99437 11.1015 4.03647C11.0069 4.07858 10.9056 4.10018 10.8032 4.10004Z" fill="#7177B8"/>
</svg>
