<svg width="14" height="14" viewBox="0 0 14 14" fill="none" xmlns="http://www.w3.org/2000/svg">
<path d="M13.1667 7.09859C13.1667 6.11268 12.5177 5.32394 11.7065 5.42253C11.382 5.42253 10.9763 5.61972 10.733 5.91549C9.59725 5.02817 8.29928 4.43662 6.92018 4.43662L7.56917 0.690141L9.67837 1.28169C9.67837 1.97183 10.1651 2.46479 10.733 2.46479C11.3008 2.46479 11.7065 1.87324 11.7065 1.1831C11.7065 0.492958 11.2197 0 10.6519 0C10.2462 0 9.92174 0.295774 9.7595 0.690141L7.48804 0H7.3258C7.24467 0 7.24467 0.0985914 7.24467 0.197183L6.43344 4.43662C5.05435 4.43662 3.75638 4.92958 2.62065 5.91549C2.05279 5.22535 1.16043 5.22535 0.592569 5.91549C0.0247061 6.60563 0.0247061 7.69014 0.592569 8.38028C0.673692 8.47887 0.835939 8.67605 0.998185 8.67605V9.16901C0.998185 11.831 3.51301 14 6.67681 14C9.84062 14 12.3554 11.831 12.3554 9.16901V8.67605C12.8422 8.38028 13.1667 7.78873 13.1667 7.09859ZM3.43188 8.38028C3.43188 7.69014 3.91862 7.19718 4.40536 7.19718C4.97322 7.19718 5.37884 7.78873 5.37884 8.38028C5.37884 8.97183 4.8921 9.56338 4.40536 9.56338C3.8375 9.56338 3.43188 9.07042 3.43188 8.38028ZM9.11051 11.6338C8.3804 12.2254 7.56917 12.6197 6.67681 12.5211C5.78446 12.5211 4.97322 12.2254 4.24311 11.6338C4.16199 11.5352 4.16199 11.338 4.24311 11.1408C4.32424 11.0423 4.48648 11.0423 4.56761 11.1408C5.13547 11.6338 5.86558 11.9296 6.59569 11.831C7.3258 11.9296 8.05591 11.6338 8.62377 11.1408C8.70489 11.0423 8.86714 11.0423 9.02939 11.1408C9.19163 11.2394 9.19163 11.4366 9.11051 11.6338ZM8.86714 9.56338C8.29928 9.56338 7.89366 8.97183 7.89366 8.38028C7.89366 7.78873 8.3804 7.19718 8.86714 7.19718C9.435 7.19718 9.84062 7.78873 9.84062 8.38028C9.92174 9.07042 9.435 9.56338 8.86714 9.56338Z" fill="#7177B8"/>
</svg>
