<svg width="174" height="173" viewBox="0 0 174 173" fill="none" xmlns="http://www.w3.org/2000/svg">
<path d="M53.4231 67.3398C54.6811 66.0818 56.3874 65.375 58.1666 65.375H65.3749C67.1541 65.375 68.8604 66.0818 70.1184 67.3398C71.3765 68.5979 72.0833 70.3042 72.0833 72.0833C72.0833 73.8625 71.3765 75.5688 70.1184 76.8268C68.8604 78.0849 67.1541 78.7917 65.3749 78.7917H58.1666C56.3874 78.7917 54.6811 78.0849 53.4231 76.8268C52.165 75.5688 51.4583 73.8625 51.4583 72.0833C51.4583 70.3042 52.165 68.5979 53.4231 67.3398ZM103.881 67.3398C105.139 66.0818 106.846 65.375 108.625 65.375H115.833C117.612 65.375 119.319 66.0818 120.577 67.3398C121.835 68.5979 122.542 70.3042 122.542 72.0833C122.542 73.8625 121.835 75.5688 120.577 76.8268C119.319 78.0849 117.612 78.7917 115.833 78.7917H108.625C106.846 78.7917 105.139 78.0849 103.881 76.8268C102.623 75.5688 101.917 73.8625 101.917 72.0833C101.917 70.3042 102.623 68.5979 103.881 67.3398ZM60.6314 110.59C61.8895 109.332 63.5958 108.625 65.3749 108.625H108.625C110.404 108.625 112.11 109.332 113.368 110.59C114.626 111.848 115.333 113.554 115.333 115.333C115.333 117.112 114.626 118.819 113.368 120.077C112.11 121.335 110.404 122.042 108.625 122.042H65.3749C63.5958 122.042 61.8895 121.335 60.6314 120.077C59.3734 118.819 58.6666 117.112 58.6666 115.333C58.6666 113.554 59.3734 111.848 60.6314 110.59Z" fill="url(#paint0_radial_1778_16999)" stroke="#52525B"/>
<path d="M158.583 86.5C158.583 126.035 126.535 158.083 87 158.083C47.4645 158.083 15.4166 126.035 15.4166 86.5C15.4166 46.9645 47.4645 14.9166 87 14.9166C126.535 14.9166 158.583 46.9645 158.583 86.5ZM87 144.667C102.427 144.667 117.222 138.538 128.13 127.63C139.038 116.722 145.167 101.927 145.167 86.5C145.167 71.0732 139.038 56.2783 128.13 45.3699C117.222 34.4616 102.427 28.3333 87 28.3333C71.5732 28.3333 56.7783 34.4616 45.8699 45.3699C34.9616 56.2783 28.8333 71.0732 28.8333 86.5C28.8333 101.927 34.9616 116.722 45.8699 127.63C56.7783 138.538 71.5732 144.667 87 144.667Z" fill="url(#paint1_radial_1778_16999)" stroke="#52525B"/>
<defs>
<radialGradient id="paint0_radial_1778_16999" cx="0" cy="0" r="1" gradientUnits="userSpaceOnUse" gradientTransform="translate(105.138 109.008) rotate(-119.868) scale(65.5947 60.087)">
<stop stop-color="#EBEDFF"/>
<stop offset="0.786458" stop-color="#FFF2E3"/>
<stop offset="1" stop-color="#FEFDF8"/>
</radialGradient>
<radialGradient id="paint1_radial_1778_16999" cx="0" cy="0" r="1" gradientUnits="userSpaceOnUse" gradientTransform="translate(123.276 124.748) rotate(-114.675) scale(156.495 125.927)">
<stop stop-color="#EBEDFF"/>
<stop offset="0.786458" stop-color="#FFF2E3"/>
<stop offset="1" stop-color="#FEFDF8"/>
</radialGradient>
</defs>
</svg>
