<svg width="15" height="14" viewBox="0 0 15 14" fill="none" xmlns="http://www.w3.org/2000/svg">
<path d="M8.75079 13.6667H6.24965C6.09294 13.6667 5.94092 13.6148 5.81882 13.5194C5.69672 13.4241 5.61186 13.2912 5.57832 13.1427L5.29866 11.8867C4.92559 11.7281 4.57184 11.5297 4.24392 11.2953L2.98166 11.6853C2.83226 11.7316 2.67105 11.7268 2.52481 11.6719C2.37857 11.6169 2.25609 11.5151 2.17772 11.3833L0.924403 9.28268C0.846857 9.15077 0.817748 8.99723 0.841839 8.84718C0.865929 8.69713 0.941793 8.55945 1.05702 8.45668L2.03618 7.59001C1.99165 7.19742 1.99165 6.80127 2.03618 6.40868L1.05702 5.54401C0.94163 5.44119 0.865663 5.30339 0.841568 5.1532C0.817474 5.003 0.846681 4.84932 0.924403 4.71734L2.17498 2.61534C2.25334 2.48355 2.37582 2.38174 2.52206 2.3268C2.6683 2.27187 2.82951 2.26712 2.97892 2.31334L4.24117 2.70334C4.40883 2.58334 4.58336 2.47134 4.76339 2.37001C4.93723 2.27534 5.11589 2.18934 5.29866 2.11268L5.57901 0.85801C5.61238 0.709475 5.69708 0.576469 5.81906 0.481043C5.94103 0.385617 6.09296 0.333503 6.24965 0.333344H8.75079C8.90748 0.333503 9.05941 0.385617 9.18139 0.481043C9.30336 0.576469 9.38806 0.709475 9.42143 0.85801L9.70453 2.11334C9.89692 2.19601 10.0852 2.28868 10.2673 2.39201C10.437 2.48734 10.6012 2.59201 10.7593 2.70468L12.0222 2.31468C12.1715 2.26862 12.3326 2.27346 12.4787 2.32838C12.6248 2.38331 12.7471 2.48503 12.8255 2.61668L14.076 4.71868C14.2355 4.99001 14.1805 5.33334 13.9434 5.54468L12.9643 6.41134C13.0088 6.80394 13.0088 7.20008 12.9643 7.59268L13.9434 8.45934C14.1805 8.67134 14.2355 9.01401 14.076 9.28534L12.8255 11.3873C12.7471 11.5191 12.6246 11.6209 12.4784 11.6759C12.3321 11.7308 12.1709 11.7356 12.0215 11.6893L10.7593 11.2993C10.4316 11.5336 10.0781 11.7317 9.70522 11.89L9.42143 13.1427C9.38792 13.2911 9.30317 13.4239 9.1812 13.5192C9.05924 13.6145 8.90739 13.6665 8.75079 13.6667ZM7.49747 4.33334C6.76852 4.33334 6.06943 4.61429 5.55398 5.11439C5.03853 5.61449 4.74896 6.29277 4.74896 7.00001C4.74896 7.70725 5.03853 8.38553 5.55398 8.88563C6.06943 9.38573 6.76852 9.66668 7.49747 9.66668C8.22642 9.66668 8.92552 9.38573 9.44096 8.88563C9.95641 8.38553 10.246 7.70725 10.246 7.00001C10.246 6.29277 9.95641 5.61449 9.44096 5.11439C8.92552 4.61429 8.22642 4.33334 7.49747 4.33334Z" fill="#7177B8"/>
</svg>
