<svg width="14" height="14" viewBox="0 0 14 14" fill="none" xmlns="http://www.w3.org/2000/svg">
<path d="M0.166672 7C0.166672 8.19456 1.19597 9.16667 2.46079 9.16667C3.06797 9.16667 3.61702 8.93917 4.02767 8.57444L8.60903 11.0473C8.59526 11.1412 8.57844 11.2351 8.57844 11.3333C8.57844 12.5279 9.60773 13.5 10.8726 13.5C12.1374 13.5 13.1667 12.5279 13.1667 11.3333C13.1667 10.1388 12.1374 9.16667 10.8726 9.16667C10.2654 9.16667 9.71632 9.39417 9.30567 9.75889L4.72432 7.28672C4.73808 7.19211 4.75491 7.09822 4.75491 7C4.75491 6.90178 4.73808 6.80789 4.72432 6.71328L9.30567 4.24111C9.71632 4.60583 10.2654 4.83333 10.8726 4.83333C12.1374 4.83333 13.1667 3.86122 13.1667 2.66667C13.1667 1.47211 12.1374 0.5 10.8726 0.5C9.60773 0.5 8.57844 1.47211 8.57844 2.66667C8.57844 2.76489 8.59526 2.85878 8.60903 2.95339L4.02767 5.42556C3.60479 5.04616 3.04406 4.83422 2.46079 4.83333C1.19597 4.83333 0.166672 5.80544 0.166672 7Z" fill="#7177B8"/>
</svg>
