<svg width="22" height="22" viewBox="0 0 22 22" fill="none" xmlns="http://www.w3.org/2000/svg">
<path fill-rule="evenodd" clip-rule="evenodd" d="M11 1C5.48 1 1 5.48 1 11C1 16.52 5.48 21 11 21C16.52 21 21 16.52 21 11C21 5.48 16.52 1 11 1ZM17.36 15.83C15.93 14.09 12.46 13.5 11 13.5C9.54 13.5 6.07 14.09 4.64 15.83C3.62 14.49 3 12.82 3 11C3 6.59 6.59 3 11 3C15.41 3 19 6.59 19 11C19 12.82 18.38 14.49 17.36 15.83ZM7.5 8.5C7.5 6.56 9.06 5 11 5C12.94 5 14.5 6.56 14.5 8.5C14.5 10.44 12.94 12 11 12C9.06 12 7.5 10.44 7.5 8.5Z" fill="white" stroke="black"/>
</svg>
