<svg width="52" height="52" viewBox="0 0 52 52" fill="none" xmlns="http://www.w3.org/2000/svg">
<circle cx="26" cy="26" r="25.5" stroke="white"/>
<path d="M36.8927 21.4934C36.8804 20.5697 36.7074 19.6551 36.3816 18.7907C36.0991 18.0615 35.6676 17.3993 35.1146 16.8463C34.5617 16.2934 33.8995 15.8619 33.1703 15.5793C32.317 15.259 31.4155 15.0858 30.5042 15.0671C29.3309 15.0146 28.9589 15 25.9805 15C23.0021 15 22.6204 15 21.4556 15.0671C20.5447 15.0859 19.6436 15.2591 18.7907 15.5793C18.0614 15.8617 17.3991 16.2931 16.8461 16.8461C16.2931 17.3991 15.8617 18.0614 15.5793 18.7907C15.2584 19.6434 15.0855 20.5447 15.0683 21.4556C15.0159 22.6301 15 23.0021 15 25.9805C15 28.9589 15 29.3394 15.0683 30.5054C15.0866 31.4177 15.2586 32.3178 15.5793 33.1727C15.8621 33.9018 16.2939 34.5639 16.8471 35.1166C17.4002 35.6693 18.0626 36.1006 18.7919 36.3829C19.6425 36.7161 20.5438 36.9017 21.4568 36.9317C22.6313 36.9841 23.0033 37 25.9817 37C28.9601 37 29.3418 37 30.5066 36.9317C31.4179 36.9138 32.3194 36.7409 33.1727 36.4207C33.9017 36.1378 34.5638 35.7062 35.1167 35.1533C35.6696 34.6004 36.1012 33.9383 36.3841 33.2093C36.7048 32.3556 36.8768 31.4555 36.8951 30.542C36.9476 29.3687 36.9634 28.9967 36.9634 26.0171C36.961 23.0387 36.961 22.6606 36.8927 21.4934ZM25.9732 31.6128C22.8582 31.6128 20.3347 29.0894 20.3347 25.9744C20.3347 22.8594 22.8582 20.336 25.9732 20.336C27.4686 20.336 28.9027 20.93 29.9601 21.9874C31.0176 23.0448 31.6116 24.479 31.6116 25.9744C31.6116 27.4698 31.0176 28.9039 29.9601 29.9614C28.9027 31.0188 27.4686 31.6128 25.9732 31.6128ZM31.836 21.4422C31.6633 21.4423 31.4923 21.4084 31.3327 21.3424C31.1731 21.2764 31.0281 21.1796 30.906 21.0574C30.7838 20.9353 30.687 20.7903 30.621 20.6307C30.555 20.4711 30.5211 20.3001 30.5212 20.1274C30.5212 19.9548 30.5552 19.7839 30.6213 19.6245C30.6873 19.465 30.7841 19.3202 30.9061 19.1981C31.0282 19.0761 31.1731 18.9793 31.3325 18.9133C31.4919 18.8472 31.6628 18.8132 31.8354 18.8132C32.008 18.8132 32.1789 18.8472 32.3383 18.9133C32.4978 18.9793 32.6426 19.0761 32.7647 19.1981C32.8867 19.3202 32.9835 19.465 33.0495 19.6245C33.1156 19.7839 33.1496 19.9548 33.1496 20.1274C33.1496 20.8543 32.5617 21.4422 31.836 21.4422Z" fill="white"/>
<path d="M25.9751 29.6377C27.9979 29.6377 29.6377 27.9979 29.6377 25.9751C29.6377 23.9523 27.9979 22.3125 25.9751 22.3125C23.9523 22.3125 22.3125 23.9523 22.3125 25.9751C22.3125 27.9979 23.9523 29.6377 25.9751 29.6377Z" fill="white"/>
</svg>
