<svg width="52" height="52" viewBox="0 0 52 52" fill="none" xmlns="http://www.w3.org/2000/svg">
<circle cx="26" cy="26" r="25.5" stroke="white"/>
<path d="M23.6729 28.002C24.2257 28.002 24.6739 27.5538 24.6739 27.001C24.6739 26.4482 24.2257 26 23.6729 26C23.12 26 22.6719 26.4482 22.6719 27.001C22.6719 27.5538 23.12 28.002 23.6729 28.002Z" fill="white"/>
<path d="M28.0938 29.3901C27.4867 29.8251 26.7494 30.0399 26.0038 29.9991C25.2585 30.0325 24.5243 29.8102 23.9228 29.3691C23.8708 29.3276 23.8054 29.3068 23.7391 29.3106C23.6727 29.3143 23.6101 29.3424 23.5632 29.3895C23.5163 29.4365 23.4884 29.4992 23.4848 29.5655C23.4812 29.6319 23.5022 29.6972 23.5438 29.7491C24.2538 30.2841 25.1258 30.5581 26.0148 30.5191C26.9023 30.558 27.7757 30.2857 28.4838 29.7491V29.7891C28.5361 29.7368 28.5661 29.6662 28.5672 29.5923C28.5683 29.5183 28.5405 29.4469 28.4898 29.3931C28.464 29.3669 28.4332 29.346 28.3994 29.3317C28.3655 29.3173 28.3291 29.3098 28.2924 29.3095C28.2556 29.3093 28.2191 29.3162 28.1851 29.33C28.151 29.3439 28.12 29.3643 28.0938 29.3901ZM28.3028 26.0391C28.0375 26.0391 27.7832 26.1444 27.5956 26.332C27.4081 26.5195 27.3028 26.7738 27.3028 27.0391C27.3028 27.3043 27.4081 27.5586 27.5956 27.7462C27.7832 27.9337 28.0375 28.0391 28.3028 28.0391L28.2948 28.0781C28.3108 28.0801 28.3278 28.0781 28.3458 28.0781C28.6103 28.0671 28.8598 27.9517 29.0394 27.7571C29.219 27.5625 29.314 27.3047 29.3038 27.0401C29.3039 26.9086 29.2781 26.7783 29.2278 26.6568C29.1776 26.5353 29.1038 26.4249 29.0109 26.332C28.9179 26.239 28.8075 26.1653 28.686 26.115C28.5645 26.0647 28.4342 26.0389 28.3028 26.0391Z" fill="white"/>
<path d="M26 16C20.479 16 16 20.477 16 26C16 31.521 20.479 36 26 36C31.521 36 36 31.521 36 26C36 20.477 31.521 16 26 16ZM31.859 27.33C31.871 27.476 31.871 27.623 31.859 27.769C31.859 30.009 29.25 31.831 26.029 31.831C22.808 31.831 20.199 30.011 20.199 27.769C20.187 27.6229 20.187 27.4761 20.199 27.33C19.9884 27.2334 19.8039 27.0881 19.6606 26.9061C19.5173 26.724 19.4194 26.5105 19.3749 26.2831C19.3305 26.0558 19.3407 25.8211 19.4049 25.5985C19.4691 25.3759 19.5853 25.1718 19.744 25.003C19.8752 24.8632 20.0327 24.7507 20.2075 24.6719C20.3822 24.5931 20.5708 24.5495 20.7624 24.5436C20.9541 24.5378 21.1449 24.5698 21.3242 24.6378C21.5034 24.7058 21.6675 24.8085 21.807 24.94C22.9591 24.159 24.3143 23.7315 25.706 23.71L26.449 20.24V20.236C26.4674 20.1558 26.5166 20.0861 26.5861 20.0419C26.6555 19.9977 26.7396 19.9827 26.82 20L29.269 20.49C29.3891 20.2844 29.5785 20.1283 29.8032 20.0497C30.028 19.9712 30.2734 19.9753 30.4954 20.0615C30.7174 20.1476 30.9014 20.31 31.0145 20.5195C31.1275 20.7291 31.1621 20.9721 31.1121 21.2049C31.0621 21.4377 30.9308 21.645 30.7417 21.7897C30.5526 21.9344 30.3181 22.0069 30.0803 21.9943C29.8426 21.9817 29.6171 21.8847 29.4444 21.7208C29.2717 21.5569 29.163 21.3368 29.138 21.1L27 20.65L26.351 23.77C27.7262 23.7997 29.0633 24.2269 30.201 25C30.4043 24.8053 30.6595 24.6735 30.9359 24.6204C31.2123 24.5674 31.4982 24.5954 31.7591 24.701C32.02 24.8067 32.2448 24.9855 32.4064 25.216C32.568 25.4465 32.6595 25.7187 32.67 26C32.68 26.563 32.363 27.08 31.859 27.33Z" fill="white"/>
</svg>
