<svg width="52" height="52" viewBox="0 0 52 52" fill="none" xmlns="http://www.w3.org/2000/svg">
<circle cx="26" cy="26" r="25.5" stroke="white"/>
<path d="M33.633 22.978C33.646 23.153 33.646 23.327 33.646 23.501C33.646 28.826 29.593 34.962 22.186 34.962C19.904 34.962 17.784 34.301 16 33.153C16.324 33.19 16.636 33.203 16.973 33.203C18.786 33.2074 20.5476 32.6011 21.974 31.482C21.1334 31.4668 20.3186 31.1895 19.6432 30.6887C18.9679 30.188 18.4658 29.4889 18.207 28.689C18.456 28.726 18.706 28.751 18.968 28.751C19.329 28.751 19.692 28.701 20.029 28.614C19.1168 28.4298 18.2965 27.9353 17.7076 27.2147C17.1188 26.494 16.7977 25.5916 16.799 24.661V24.611C17.336 24.91 17.959 25.097 18.619 25.122C18.0661 24.7546 17.6127 24.256 17.2993 23.6708C16.986 23.0856 16.8223 22.4319 16.823 21.768C16.823 21.02 17.022 20.334 17.371 19.736C18.3831 20.981 19.6455 21.9996 21.0763 22.7257C22.5072 23.4518 24.0746 23.8692 25.677 23.951C25.615 23.651 25.577 23.34 25.577 23.028C25.5767 22.499 25.6807 21.9751 25.8831 21.4862C26.0854 20.9974 26.3821 20.5533 26.7562 20.1792C27.1303 19.8051 27.5744 19.5084 28.0632 19.3061C28.5521 19.1037 29.076 18.9997 29.605 19C30.765 19 31.812 19.486 32.548 20.272C33.4498 20.0976 34.3145 19.7684 35.104 19.299C34.8034 20.2298 34.1738 21.0191 33.333 21.519C34.1328 21.4278 34.9144 21.2175 35.652 20.895C35.1011 21.6981 34.4185 22.4023 33.633 22.978Z" fill="white"/>
</svg>
