<svg width="25" height="6" viewBox="0 0 25 6" fill="none" xmlns="http://www.w3.org/2000/svg">
<path d="M12.2881 0C10.6381 0 9.28809 1.35 9.28809 3C9.28809 4.65 10.6381 6 12.2881 6C13.9381 6 15.2881 4.65 15.2881 3C15.2881 1.35 13.9381 0 12.2881 0ZM21.2881 0C19.6381 0 18.2881 1.35 18.2881 3C18.2881 4.65 19.6381 6 21.2881 6C22.9381 6 24.2881 4.65 24.2881 3C24.2881 1.35 22.9381 0 21.2881 0ZM3.28809 0C1.63809 0 0.288086 1.35 0.288086 3C0.288086 4.65 1.63809 6 3.28809 6C4.93809 6 6.28809 4.65 6.28809 3C6.28809 1.35 4.93809 0 3.28809 0Z" fill="white"/>
</svg>
