<svg width="219" height="221" viewBox="0 0 219 221" fill="none" xmlns="http://www.w3.org/2000/svg">
<path d="M109.5 183.833C149.817 183.833 182.5 151.001 182.5 110.5C182.5 69.9991 149.817 37.1667 109.5 37.1667C69.1832 37.1667 36.5 69.9991 36.5 110.5C36.5 151.001 69.1832 183.833 109.5 183.833Z" fill="url(#paint0_radial_1997_16624)"/>
<path d="M28.1232 85.2122C27.7393 83.6488 27.6679 82.0244 27.9133 80.4331C28.1587 78.8417 28.716 77.3151 29.5528 75.9417C35.1251 66.7322 49.1229 63.2153 49.716 63.0686C50.3077 62.924 50.9324 63.0215 51.4526 63.3395C51.9728 63.6575 52.3459 64.1701 52.49 64.7644C52.633 65.3603 55.9666 79.4617 50.3943 88.6742C48.7104 91.4474 46.0003 93.4365 42.8584 94.2052C39.7166 94.974 36.3995 94.4595 33.6347 92.7747C32.2634 91.9435 31.0701 90.8469 30.124 89.5487C29.1779 88.2505 28.4978 86.7765 28.1232 85.2122Z" fill="#92D3F5"/>
<path d="M91.25 95.2222C91.1886 97.6124 90.2002 99.8839 88.4956 101.553C86.7911 103.221 84.5051 104.155 82.125 104.155C79.7449 104.155 77.4589 103.221 75.7544 101.553C74.0498 99.8839 73.0614 97.6124 73 95.2222C73 90.1653 77.091 86.0556 82.125 86.0556C87.159 86.0556 91.25 90.1653 91.25 95.2222ZM146 95.2222C145.939 97.6124 144.95 99.8839 143.246 101.553C141.541 103.221 139.255 104.155 136.875 104.155C134.495 104.155 132.209 103.221 130.504 101.553C128.8 99.8839 127.811 97.6124 127.75 95.2222C127.75 90.1653 131.841 86.0556 136.875 86.0556C141.909 86.0556 146 90.1653 146 95.2222Z" fill="black"/>
<path d="M148.591 74.5972C147.11 75.2939 140.598 78.1417 132.884 75.6147C126.624 73.5614 123.221 69.1614 122.117 67.597M80.6039 147.167C86.3131 135.455 98.3185 128.231 111.021 128.833C122.682 129.383 133.203 136.451 138.396 147.167H80.6039ZM70.4082 74.5972C71.8895 75.2939 78.4017 78.1417 86.1154 75.6147C92.3751 73.5614 95.7787 69.1614 96.8829 67.597L70.4082 74.5972Z" stroke="black" stroke-width="2" stroke-miterlimit="10" stroke-linecap="round" stroke-linejoin="round"/>
<path d="M28.1232 85.2122C27.7393 83.6488 27.6679 82.0244 27.9133 80.4331C28.1587 78.8417 28.716 77.3151 29.5528 75.9417C35.1251 66.7322 49.1229 63.2153 49.716 63.0686C50.3077 62.924 50.9324 63.0215 51.4526 63.3395C51.9728 63.6575 52.3459 64.1701 52.49 64.7644C52.633 65.3603 55.9666 79.4617 50.3943 88.6742C48.7104 91.4474 46.0003 93.4365 42.8584 94.2052C39.7166 94.974 36.3995 94.4595 33.6347 92.7747C32.2634 91.9435 31.0701 90.8469 30.124 89.5487C29.1779 88.2505 28.4978 86.7765 28.1232 85.2122V85.2122Z" stroke="black" stroke-width="2" stroke-miterlimit="10"/>
<path d="M66.9076 54.7208C79.1171 45.2848 94.0954 40.1797 109.5 40.2039C148.147 40.2039 179.477 71.6761 179.477 110.5C179.477 149.324 148.147 180.796 109.5 180.796C70.8526 180.796 39.5234 149.324 39.5234 110.5C39.5234 109.29 39.5539 108.086 39.6147 106.894" stroke="black" stroke-width="2" stroke-miterlimit="10" stroke-linecap="round"/>
<defs>
<radialGradient id="paint0_radial_1997_16624" cx="0" cy="0" r="1" gradientUnits="userSpaceOnUse" gradientTransform="translate(146.238 149.412) rotate(-114.576) scale(159.083 127.629)">
<stop stop-color="#EBEDFF"/>
<stop offset="0.786458" stop-color="#FFF2E3"/>
<stop offset="1" stop-color="#FEFDF8"/>
</radialGradient>
</defs>
</svg>
